<svg width="355" height="130" viewBox="0 0 355 269" fill="none" xmlns="http://www.w3.org/2000/svg">
    <path d="M19.0206 268.874C16.5606 266.367 16.823 262.687 15.8062 259.585C12.8542 250.639 11.2305 241.332 10.9189 231.791C10.5581 220.969 13.3134 211.517 20.103 203.257C26.8106 195.104 33.8463 187.583 42.2759 181.559C50.2463 175.859 59.1187 173.262 68.1223 170.755C72.9275 169.42 77.7327 167.995 82.4888 166.444C88.1796 164.586 92.9192 161.033 96.97 156.289C103.366 148.84 108.942 140.706 114.075 132.192C119.028 123.968 124.358 116.104 131.115 109.502C133.854 106.833 136.74 104.416 139.872 102.342C142.513 100.574 142.365 100.376 141.119 96.0471C140.315 93.3056 138.626 94.1173 137.134 94.4419C122.866 97.6344 109.549 103.262 97.5768 112.641C86.7528 121.118 75.2892 128.423 62.6612 133.166C53.4279 136.63 44.0306 137.658 34.3054 135.403C26.2366 133.527 19.9882 128.856 14.9206 122.092C5.26093 109.196 1.25939 94.0811 1.06259 77.5416C2.7354 77.3612 2.965 78.9304 3.4242 79.9224C5.21181 83.656 7.50779 87.0288 9.85299 90.2935C13.4774 95.3437 18.463 97.8508 24.9574 98.915C14.6253 81.7802 15.4126 65.5473 26.5646 49.4587C19.9882 48.9717 14.2154 49.0979 8.60658 52.0018C5.68737 53.5169 3.91615 55.6091 2.85014 58.9459C1.81694 62.1925 1.24291 65.5292 0.357304 68.8119C-0.905499 61.6874 1.3578 55.4829 4.3426 49.3865C9.73822 38.3842 18.4466 32.7748 29.3363 30.899C39.9963 29.0593 50.6891 27.9951 61.4967 29.3478C65.6623 29.8709 69.6639 30.9351 73.4523 32.7928C89.508 40.7109 104.711 50.3244 119.471 60.8036C121.718 62.4089 123.538 64.5012 125.145 66.864C127.884 70.8501 131.017 74.2229 135.723 75.3592C137.839 75.8642 139.627 77.3072 141.365 78.714C142.103 79.3092 142.431 80.1389 141.89 81.0587C141.463 81.7802 140.758 81.7261 140.119 81.4195C136.707 79.7421 132.952 79.5797 129.409 78.1729C124.243 76.1348 118.569 77.0907 113.272 78.8222C100.414 83.0067 87.6876 87.6782 75.4203 93.6844C61.1523 100.665 46.4087 104.939 30.6647 104.073C24.9246 103.767 19.5946 102.035 14.6418 98.8608C11.2962 96.7145 8.52456 93.9369 6.63855 90.1131C5.86775 88.5439 5.09695 86.8846 3.35854 85.4777C3.52254 90.5821 4.40819 95.2535 5.96619 99.6004C9.5086 109.539 14.4614 118.521 22.1859 125.339C29.5003 131.778 38.1266 133.022 47.0319 132.734C55.7895 132.445 63.9567 129.325 71.6648 124.96C79.1596 120.721 86.72 116.501 93.5096 110.909C107.318 99.5102 122.915 92.9088 139.84 89.7704C140.496 89.6441 141.135 89.4818 141.677 88.057C139.709 88.2193 137.954 88.5079 136.199 88.4898C134.395 88.4537 132.574 87.8946 130.77 87.9667C119.668 88.3635 109.04 90.4197 100.217 98.7707C98.036 100.845 95.6252 102.685 92.7716 103.641C97.8228 96.3718 103.218 89.8606 111.697 87.2633C119.274 84.9547 126.802 83.2773 134.69 84.3955C136.002 84.5759 137.331 84.4677 138.659 84.5579C141.775 84.7563 143.989 83.674 146.154 80.7702C151.73 73.285 159.421 70.2548 168.13 70.2187C170.491 70.2187 172.755 70.814 174.723 72.293C176.887 73.8983 177.986 72.9783 179.511 70.8861C192.14 53.5349 204.784 36.2018 220.479 21.9529C231.385 12.0508 243.586 4.9624 257.51 1.80599C267.859 -0.538763 278.207 -1.13394 288.309 3.30306C294.394 5.97248 298.986 10.4816 302.069 16.8124C304.742 22.3136 306.53 28.1033 307.448 34.3079C308.613 42.2079 310.63 49.9276 310.253 58.0802C310.056 62.3007 309.547 66.377 308.383 70.4172C307.087 74.8903 306.038 79.6158 304.463 83.8183C301.675 91.3216 299.265 99.2216 294.968 105.967C290.064 113.651 282.619 116.555 274.615 118.268C266.251 120.072 257.953 119.116 250.097 116.23C236.288 111.144 222.184 107.23 208.507 101.62C201.291 98.6624 193.534 97.0933 185.76 96.2456C184.989 96.1554 184.087 95.9389 183.365 97.3458C184.448 99.3839 186.531 100.178 188.466 100.665C197.863 103.063 206.654 107.338 215.674 110.891C224.53 114.372 232.484 119.459 237.912 128.387C240.634 132.86 244.275 136.287 248.523 138.92C254.148 142.419 258.97 147.127 264.431 151.69C261.594 152.357 260.003 150.572 258.264 149.417C255.87 147.812 253.64 145.864 251.163 144.421C244.341 140.435 238.502 135.313 233.812 128.441C229.417 121.984 223.004 118.376 216.28 115.563C205.014 110.837 193.386 107.122 182.431 101.494C181.447 100.989 180.659 100.683 179.708 101.494C177.986 102.955 175.903 103.605 173.525 104.308C180.561 119.332 187.285 134.267 200.438 143.7C217.855 156.199 236.682 162.133 257.576 157.047C268.072 154.486 278.551 151.798 289.08 149.399C304.841 145.792 320.027 147.542 334.443 155.802C338.428 158.093 342.052 160.925 345.447 164.171C354.27 172.612 356.73 183.38 353.86 195.357C350.712 208.451 343.512 219.147 335.049 229.987C334.541 226.957 335.705 225.388 336.493 223.836C339.445 217.938 342.593 212.149 345.496 206.215C348.169 200.75 350.564 195.14 351.335 188.881C352.335 180.783 350.646 173.857 344.791 168.248C330.769 154.81 314.353 150.355 296.28 152.556C289.753 153.349 283.324 155.099 276.797 157.047C286.21 157.263 294.049 162.386 302.397 165.867C307.087 167.833 311.417 170.448 315.55 173.478C318.912 175.931 321.388 179.322 323.143 183.38C327.702 194.022 329.441 205.168 328.358 216.874C328.079 219.904 328.014 222.971 327.85 225.893C329.719 226.903 330.605 224.089 332.163 225.207C332.54 225.658 332.606 226.145 332.36 226.686C331.228 229.121 329.933 232.422 327.292 231.791C324.799 231.195 325.193 227.588 325.193 225.135C325.193 217.866 325.964 210.598 325.095 203.311C324.389 197.503 323.241 191.876 321.109 186.465C319.469 182.298 316.927 179.033 313.483 176.653C304.726 170.646 295.083 166.751 285.423 162.981C281.782 161.556 277.879 161.845 274.107 161.556C267.203 161.015 260.347 160.492 253.344 161.7C243.619 163.378 233.861 162.692 224.464 158.76C219.216 156.56 213.804 154.883 208.687 152.195C195.288 145.179 185.825 133.816 178.659 119.855C176.625 115.887 174.641 111.901 172.558 107.951C170.229 103.55 166.752 101.747 162.275 103.226C155.19 105.552 149.565 110.098 146.334 117.673C144.497 122.002 143.546 126.601 142.89 131.309C141.578 140.67 140.447 150.067 136.084 158.526C130.656 169.059 122.997 176.039 112.009 178.673C103.432 180.729 95.1004 181.072 86.474 178.817C78.1919 176.653 69.8279 177.627 61.3491 178.871C47.2286 180.945 37.3887 190.252 27.7782 200.335C25.8594 202.337 24.285 204.754 22.3662 206.738C15.019 214.367 12.9034 224.071 13.4938 234.64C14.0678 245.011 16.1178 255.166 18.299 265.266C18.5614 266.493 18.7418 267.755 18.955 269L19.0698 268.874H19.0206ZM190.352 81.5457C191.631 82.8985 192.467 82.7542 193.271 82.7001C203.029 82.0868 212.738 81.185 222.381 79.3453C236.534 76.6578 250.327 77.235 263.48 84.8103C270.286 88.7243 277.862 90.059 285.521 90.7805C291.458 91.3216 296.263 89.1752 300.068 84.2873C305.382 77.4695 306.973 69.1366 307.547 60.5331C308.088 52.4166 305.759 44.697 304.496 36.8331C303.529 30.863 302.053 25.1273 299.494 19.7704C296.624 13.7462 292.393 9.32723 286.62 6.80211C277.813 2.92424 268.711 3.53751 259.724 5.30509C240.159 9.14689 224.661 20.9969 211.295 36.4904C201.947 47.3123 192.959 58.513 183.874 69.6055C182.381 71.4272 180.118 72.4914 179.036 75.0526C183.775 76.1348 186.891 73.5014 189.811 70.4713C194.501 65.5834 198.732 60.2085 203.029 54.9057C209.622 46.7532 217.871 41.0175 226.53 35.9673C228.826 34.6326 231.434 33.7307 235.124 34.6506C230.893 37.5184 227.482 39.7009 224.185 42.0997C217.297 47.1319 210.163 51.7854 204.735 58.9098C199.323 66.0162 193.615 72.8702 186.645 78.3713C186.941 78.4976 187.105 78.6599 187.236 78.6238C189.302 78.0286 191.352 77.2711 193.435 76.8021C208.458 73.4473 221.315 65.4752 232.451 54.1301C242.865 43.5246 254.755 35.336 266.792 27.3097C270.646 24.7486 274.763 22.8727 279.109 21.6282C291.147 18.2012 298.215 22.5661 302.053 35.4803C303.381 39.9354 302.971 44.4986 303.561 48.9897C304.25 54.3105 304.349 59.7395 304.791 66.2687C302.938 63.1484 303.201 60.7315 303.004 58.4409C302.266 50.0899 301.101 41.8472 298.117 34.0194C295.804 27.9771 291.704 25.0551 285.751 25.0191C280.29 24.983 275.304 26.6965 270.581 29.4922C257.707 37.0856 245.571 45.8513 234.796 56.8176C225.202 66.5934 214.427 74.2409 201.75 78.2811C198.126 79.4354 194.452 80.4094 190.368 81.5998L190.352 81.5457ZM116.847 73.6818C116.88 73.303 116.912 72.9062 116.945 72.5274C112.091 71.7338 107.236 70.7779 102.366 70.1646C94.0672 69.1185 85.8508 69.858 77.6836 71.7158C69.3359 73.6096 61.9888 71.3551 55.4779 65.3489C52.5587 62.6614 49.4919 60.1724 46.4087 57.7194C42.3578 54.4728 37.7331 52.4708 33.0099 50.7212C30.681 49.8554 29.0738 50.3064 27.647 52.8315C25.7118 56.2765 24.5638 60.0822 22.973 63.6715C17.8726 75.2149 20.0702 85.8745 26.2366 96.1013C28.1554 99.2937 30.5007 100.701 34.0431 100.61C43.0631 100.394 51.7715 98.5542 60.3979 95.7766C67.7452 93.4138 74.4856 89.4457 81.6032 86.5058C93.198 81.7261 104.826 77.0546 116.847 73.6818ZM298.789 92.7104C290.966 96.6243 283.439 95.6143 275.977 94.1353C270.581 93.0711 265.448 90.9428 260.626 88.057C253.197 83.638 245.177 81.4916 236.813 81.2752C224.431 80.9686 212.361 84.125 200.077 85.9647C203.57 87.7503 207.26 88.7423 210.606 90.6542C215.641 93.522 221.036 95.2535 226.596 96.3718C233.254 97.7245 239.618 100.214 246.063 102.468C245.243 102.757 244.456 102.937 243.685 102.811C231.926 100.845 220.036 99.5643 209.097 93.6844C202.029 89.8786 194.239 88.7965 186.563 87.4437C185.661 87.2814 184.431 87.101 184.284 88.6882C184.153 90.0049 184.349 91.2855 185.907 91.538C186.399 91.6101 186.891 91.6643 187.383 91.7364C197.092 93.0892 206.621 95.1814 215.657 99.4921C223.119 103.063 231.221 104.47 238.814 107.609C245.964 110.549 253.23 112.893 260.79 114.174C270.679 115.851 279.863 113.831 288.457 108.276C293.721 104.885 296.608 99.5643 298.805 92.7284L298.789 92.7104ZM121.144 66.5213C120.996 64.9882 119.897 64.6635 119.11 64.1224C109.155 57.2685 99.1349 50.5048 88.7044 44.5707C77.6836 38.312 66.6792 31.7647 53.6411 32.396C48.5243 32.6485 43.3747 32.6305 38.2743 33.1536C31.8455 33.8029 25.4495 34.7949 19.4142 37.5545C15.1338 39.5205 11.6406 42.4605 9.45941 47.637C10.4434 47.4386 10.919 47.3844 11.3782 47.2402C24.8918 43.2901 37.2574 45.9235 48.4422 55.1041C51.6239 57.7194 54.6907 60.479 57.7903 63.2205C61.2343 66.2687 65.1867 68.0543 69.5491 68.5774C73.3703 69.0464 77.1424 68.1265 80.8816 67.4411C87.7532 66.1606 94.6413 65.3489 101.611 66.3769C103.317 66.6295 105.055 66.5934 106.777 66.7016C106.843 66.3409 106.908 65.9621 106.974 65.6014C87.2284 59.505 69.0408 47.8353 47.4911 47.168C49.0491 44.5166 50.8858 44.9495 52.4274 44.8052C61.0375 44.0657 69.2211 46.176 77.0275 50.0178C89.1143 55.9699 101.857 60.01 114.075 65.6014C116.289 66.6114 118.634 67.405 121.127 66.5032L121.144 66.5213ZM114.403 153.53C114.846 152.808 115.191 151.924 115.765 151.383C121.095 146.441 124.276 139.876 127.327 133.166C130.885 125.357 134.575 117.601 139.725 110.855C141.398 108.655 143.12 106.526 145.317 103.731C142.497 104.037 140.988 105.498 139.462 106.725C131.902 112.785 125.522 120.108 120.192 128.549C113.977 138.415 108.138 148.588 100.84 157.606C95.74 163.919 89.6064 168.248 82.2756 170.61C80.4715 171.188 78.684 171.873 76.88 172.504C80.9636 174.019 84.998 174.56 88.9668 175.498C94.3788 176.797 99.7416 176.851 105.236 176.112C116.896 174.542 126.31 169.131 132.722 157.967C136.494 151.401 138.889 144.331 140.102 136.702C141.808 125.862 142.956 114.769 151.025 106.689C148.253 104.759 146.908 106.653 145.547 108.186C140.414 113.939 136.084 120.342 132.755 127.539C130.279 132.896 127.835 138.253 125.309 143.592C123.03 148.407 119.717 152.069 114.42 153.494L114.403 153.53ZM162.111 98.933C165.211 98.8428 167.736 99.4921 170.262 100.376C172.837 101.278 175.985 101.981 177.789 99.6725C179.823 97.0572 183.021 94.5501 182.332 90.3476C181.742 86.7583 181.512 83.0247 179.938 79.706C179.167 78.0647 178.003 76.6759 176.527 75.8281C170.541 72.3471 164.571 73.1587 158.323 75.792C159.667 78.2991 161.701 78.714 163.521 79.3994C166.195 80.4274 168.671 81.8343 171.065 83.4756C174.87 86.091 176.1 90.0229 176.018 94.6763C175.985 96.5522 175.69 98.3558 173.361 98.8248C172.295 95.3437 175.051 90.9428 171.557 88.1471C168.851 85.9647 166.031 83.8905 161.996 83.5659C164.883 88.8686 163.308 93.6303 162.111 98.933ZM153.649 76.9645C151.254 79.2551 149.549 81.4916 147.597 83.3494C144.169 86.632 145.301 91.6102 143.333 95.3798C142.89 96.2456 143.694 97.454 144.284 98.3378C146.777 102.035 154.403 103.46 157.306 100.827C161.471 97.0211 162.308 89.4277 158.913 85.3515C156.912 82.9526 155.207 80.3734 153.649 76.9645Z" fill="black"/>
</svg> 