<svg width="294" height="555" viewBox="0 0 294 555" fill="none" xmlns="http://www.w3.org/2000/svg">
<path d="M270.806 310.757C271.148 315.169 267.183 321.122 265.346 324.886C262.844 329.98 260.033 334.97 256.425 339.242C250.803 345.895 244.872 351.777 237.299 355.839C223.974 363.017 206.993 367.517 192.287 363.367C179.011 359.621 163.509 347.768 157.09 334.427C155.985 332.134 155.302 329.595 154.36 327.197C153.612 325.324 152.784 323.485 151.955 321.647C151.727 321.122 151.289 320.684 150.704 320.807C150.135 320.929 149.842 321.489 149.826 322.067C149.794 323.205 149.761 324.361 149.891 325.481C150.476 330.558 150.964 335.67 151.76 340.713C155.075 361.704 155.822 382.066 161.916 402.532C163.769 408.782 165.8 415.015 166.515 421.545C167.295 428.496 166.547 437.757 161.754 443.044C160.909 443.972 160.389 445.023 159.95 446.196C158.975 448.839 159.202 449.417 161.64 450.52C168.481 453.671 170.35 465.804 170.317 473C170.269 481.859 167.246 490.98 160.681 496.53C158.845 498.088 156.797 498.964 154.344 498.193C152.134 497.493 149.842 497.02 147.535 497.178C141.815 497.58 136.095 497.038 130.375 497.493C123.128 498.071 119.13 484.24 118.041 478.392C116.498 470.024 117.424 460.727 122.38 453.847C123.436 452.393 123.485 450.73 122.851 448.997C119.065 438.527 118.366 430.544 121.454 419.584C126.036 403.285 132.244 387.545 135.998 370.983C139.589 355.139 139.377 338.874 139.215 322.662C139.215 321.752 139.134 320.842 139.02 319.949C138.923 319.248 138.662 318.531 137.866 318.653C137.281 318.741 137.2 319.371 137.038 319.949C136.176 323.223 135.006 326.339 133.105 329.123C121.616 345.982 105.903 360.181 86.7605 364.891C69.7143 369.092 50.5069 364.716 38.027 351.375C27.6108 340.222 22.8009 324.448 18.3484 309.287C19.9247 308.009 22.8171 309.899 23.9221 308.131C24.5559 307.116 23.9059 305.645 22.9146 305.032C21.9234 304.437 20.7535 304.419 19.6322 304.262C10.6948 303.071 4.94227 292.654 4.32478 282.868C3.70728 273.081 6.74605 263.522 8.43604 253.875C10.126 244.228 10.1747 233.339 4.51977 225.688C15.6672 223.64 27.1396 223.745 38.2545 225.986C32.8758 233.234 33.7209 243.843 36.4833 252.667C39.2458 261.473 43.6657 269.789 44.7382 279.033C45.8107 288.277 42.122 299.22 33.8996 301.776C32.1608 302.319 30.0483 302.686 29.3334 304.49C29.0734 305.137 29.0734 305.873 29.0734 306.59C29.6259 349.186 76.7505 373.347 107.057 346.42C109.949 343.847 112.679 341.063 115.523 338.419C118.334 335.793 120.008 332.169 122.396 329.175C125.939 324.746 128.766 319.984 130.31 314.259C132.276 306.976 132.52 299.727 130.765 292.409C130.603 291.744 130.375 291.114 130.261 290.448C129.449 285.319 127.873 280.644 124.168 277.055C121.795 274.762 119 273.624 115.945 273.431C114.011 273.309 112.419 274.289 111.233 276.215C109.673 278.753 109.299 281.117 110.859 283.796C111.866 285.529 111.72 286.982 110.729 287.77C109.608 288.663 106.472 288.768 105.334 287.77C103.254 285.896 101.987 283.498 101.759 280.522C101.483 276.898 102.328 273.746 103.985 270.472C106.553 265.395 110.274 263.014 115.328 263.067C120.983 263.119 126.085 265.395 130.586 268.984C132.926 270.857 135.526 272.363 137.59 274.674C138.191 275.357 139.004 275.97 140.027 276.11C142.367 276.407 143.034 275.777 142.952 273.186C142.79 268.074 142.79 262.944 142.384 257.867C142.124 254.523 141.441 251.354 138.256 249.271C134.795 246.995 131.708 244.088 129.481 240.202C125.825 233.811 122.884 224.515 124.444 217.022C126.605 206.692 132.325 197.606 134.99 187.399C135.916 183.862 136.095 180.378 134.86 176.702C133.95 174.023 132.666 171.73 130.976 169.489C131.529 169.279 131.821 169.068 132.098 169.068C140.027 169.156 147.909 168.473 155.757 167.37C156.261 167.3 157.057 167.23 157.252 167.51C158.569 169.524 159.349 168.368 160.259 167.09C160.502 166.74 161.039 166.88 161.396 167.195C161.429 167.3 161.494 167.423 161.461 167.51C161.282 168.036 161.104 168.561 160.876 169.051C152.069 187.084 164.094 203.821 162.599 222.554C161.526 236.052 154.831 243.003 147.844 253.14C147.112 254.19 147.275 255.853 148.38 255.941C150.915 256.151 150.314 257.884 150.379 259.495C150.492 262.454 150.379 265.395 150.379 268.336C150.379 271.155 150.167 274.026 150.769 276.845C150.915 277.493 150.817 278.263 151.549 278.561C152.394 278.911 152.93 278.333 153.45 277.755C153.807 277.353 154.165 276.915 154.506 276.495C158.016 272.241 161.949 268.617 166.694 265.99C171.487 263.312 176.135 261.281 181.822 262.156C186.99 262.944 190.305 265.273 191.995 270.63C192.953 273.694 193.197 276.722 192.937 279.961C192.547 285.056 188.208 289.871 182.813 290.133C181.026 290.221 179.011 288.558 179.157 286.737C179.287 285.109 179.108 283.13 180.603 281.922C181.302 282.272 181.156 283.043 181.562 283.393C182.618 284.338 183.902 283.866 184.211 282.465C184.715 280.189 182.976 276.6 180.896 276.232C178.133 275.742 175.16 274.919 172.576 276.39C169.359 278.228 166.157 280.557 164.516 284.198C161.185 291.639 159.446 299.657 159.95 307.921C160.356 314.469 161.331 321.034 164.695 326.829C165.914 328.93 167.246 331.013 168.335 333.167C171.048 338.524 175.16 342.306 179.612 345.632C183.723 348.696 188.29 351.007 192.807 353.353C193.538 353.738 194.4 353.966 195.212 354.053C201.55 354.736 207.871 355.261 214.257 354.053C219.116 353.143 223.828 351.935 228.411 349.904C231.628 348.469 234.456 346.315 237.576 344.722C242.385 342.253 246.269 338.437 249.389 333.832C252.558 329.14 262.568 314.049 259.952 308.149C259.513 308.061 259.269 308.324 259.025 308.726C258.863 309.006 258.798 309.357 258.668 309.654C256.507 314.329 254.459 319.056 252.135 323.643C248.382 331.048 243.295 337.071 236.357 341.133C234.992 341.938 233.513 342.463 232.197 343.409C229.044 345.667 225.469 347.155 221.894 348.258C206.522 352.968 191.15 351.462 178.54 339.995C165.117 327.792 158.146 305.382 167.376 287.717C168.595 285.389 170.008 283.323 171.91 281.73C173.535 280.364 175.29 278.981 177.662 279.629C177.077 281.94 175.761 283.901 175.729 286.387C175.68 290.466 179.498 294.913 183.106 294.318C187.445 293.6 191.328 291.761 193.912 287.56C196.041 284.093 196.415 280.207 196.48 276.215C196.528 273.081 195.537 270.227 194.351 267.426C193.051 264.327 191.15 261.771 188.338 260.37C184.78 258.602 180.928 258.532 177.045 258.69C173.795 258.812 170.951 260.073 168.14 261.613C162.972 264.45 158.081 267.654 154.604 272.906C154.262 273.431 154.019 274.166 153.125 274.061C152.491 272.783 153.109 271.418 153.06 270.105C152.914 265.22 152.995 260.335 152.962 255.451C152.962 253.928 153.027 252.422 154.149 251.354C157.204 248.465 159.202 244.736 161.104 240.955C162.891 237.4 164.435 233.689 165.264 229.68C166.141 225.46 166.482 221.206 166.336 216.899C166.239 213.608 166.287 210.264 165.442 207.13C163.996 201.685 162.859 196.135 161.136 190.778C160.096 187.539 159.934 184.142 160.665 180.676C161.737 175.564 162.599 170.417 165.816 166.232C166.011 165.987 166.141 165.655 166.239 165.322C166.71 163.886 166.255 163.098 164.89 163.098C163.947 163.098 163.005 163.326 162.079 163.256C159.852 163.081 159.446 162.731 159.527 160.385C159.739 154.135 159.267 147.902 159.089 141.669C158.959 136.89 158.942 132.11 158.634 127.33C158.211 120.643 158.032 113.92 157.837 107.214C157.772 104.833 158 102.452 158.065 100.071C158.211 94.6263 158.016 89.1639 158.13 83.7191C158.244 78.5894 158.244 73.4946 158.016 68.3824C157.789 63.1477 157.236 57.9304 157.252 52.6957C157.252 49.0716 156.456 45.7277 155.367 42.4538C154.555 40.0027 152.589 39.67 150.509 41.1057C149.664 41.6834 149.144 42.8914 147.892 42.7514C147.567 41.1057 147.892 39.5475 148.071 37.9893C148.559 33.8225 149.68 29.8133 150.541 25.734C151.354 21.8824 151.695 18.1707 150.151 14.4241C148.526 10.5024 146.934 6.56322 145.504 2.55399C144.919 0.925787 143.976 0.172967 142.53 0.0153986C140.889 -0.159677 140.466 1.18842 140.027 2.51899C138.646 6.65078 137.038 10.7125 135.868 14.9144C134.73 18.9761 134.568 23.3005 135.51 27.3797C136.745 32.6495 138.5 37.7442 142.059 41.876C143.521 43.5742 142.985 45.0974 141.181 46.603C139.459 48.0562 137.622 48.8615 135.445 49.0366C134.47 49.1066 132.959 49.0366 132.748 50.2796C132.488 51.8553 131.35 52.9057 131.09 54.3239C130.57 57.2126 130.018 60.1714 130.05 63.1127C130.083 68.3299 130.505 73.5472 130.83 78.7469C131.171 84.1918 131.448 89.6191 131.334 95.099C131.253 99.7385 131.318 104.431 131.935 109.018C133.089 117.701 132.878 126.473 133.528 135.174C134.064 142.422 134.08 149.705 134.421 156.971C134.535 159.614 134.031 162.293 134.844 165.059C134.096 165.059 133.576 165.059 133.056 165.059C129.823 164.989 126.638 165.409 123.485 166.25C122.461 166.512 121.568 166.985 121.649 168.176C121.73 169.384 122.786 169.209 123.615 169.244C124.98 169.296 126.166 169.611 127.385 170.557C134.113 175.756 134.34 183.075 131.789 189.973C129.335 196.59 126.41 203.016 123.68 209.528C121.633 214.378 120.528 219.49 121.356 224.778C123.225 236.578 128.246 246.347 137.753 252.877C139.28 253.928 139.767 255.276 139.914 257.044C140.271 261.473 140.011 265.92 140.093 270.367C140.093 271.033 140.661 271.978 139.524 272.416C136.355 268.809 132.829 265.64 128.815 263.154C126.654 261.824 124.639 260.108 122.12 259.618C119.455 259.092 116.774 258.427 114.093 258.445C111.753 258.445 109.218 258.9 107.187 260.318C100.638 264.87 97.0791 271.453 97.5991 279.979C97.9241 285.214 99.7928 289.888 104.733 292.217C107.317 293.442 111.021 292.724 113.134 290.448C115.588 287.805 115.815 285.931 114.109 282.132C114.011 281.922 113.882 281.747 113.784 281.555C113.085 280.259 112.939 278.981 113.979 277.79C114.97 276.67 116.091 276.705 117.424 277.108C121.356 278.281 123.729 281.397 124.948 285.196C127.304 292.479 129.01 299.99 128.604 307.851C128.506 309.654 128.181 311.335 127.434 313.051C121.194 327.354 107.642 346.578 92.7567 350.324C85.3792 352.198 77.9855 353.581 70.2343 352.775C61.6543 351.882 53.952 349.081 47.3545 343.094C44.4133 340.415 41.5371 337.439 39.9446 333.5C38.0108 328.72 36.1746 323.888 34.5496 318.986C33.5584 316.009 33.0221 312.876 32.3071 309.794C31.9659 308.324 32.0471 307.046 33.8021 306.73C34.1921 306.66 34.5496 306.345 34.9396 306.17C41.4233 302.966 46.3307 298.274 47.9882 290.326C49.2557 284.303 49.1258 278.263 47.5658 272.433C46.5583 268.687 45.0307 265.062 43.7145 261.386C42.0407 256.746 40.172 252.177 38.742 247.432C36.7433 240.779 37.5558 234.494 40.7571 228.454C41.4883 227.089 42.7232 226.458 43.6332 225.39C44.917 223.867 44.5757 222.729 42.7232 222.239C42.4145 222.151 42.1057 222.064 41.797 222.099C38.872 222.327 35.9471 221.679 33.0384 221.801C30.8446 221.906 30.6658 221.556 30.4221 219.263C29.9346 214.588 30.9583 209.984 30.7471 205.327C30.6008 201.825 30.7146 198.289 30.8121 194.77C30.9909 188.432 31.6246 182.129 32.0471 175.809C32.7783 165.042 33.5096 154.275 33.9971 143.49C34.3221 136.137 34.5008 128.749 32.8758 121.5C31.0396 117.509 30.6333 116.826 26.2621 117.316C25.9209 117.351 25.5634 117.386 25.2709 117.176C24.8971 116.896 24.8322 116.336 24.8159 115.828C24.5722 108.965 26.0022 102.12 25.6284 95.2741C25.4497 91.9827 20.2659 66.159 15.716 73.022C13.7822 75.9282 13.181 79.4297 11.9785 82.6686C10.4185 86.9405 10.451 91.5099 10.1423 96.0269C9.58976 103.87 11.686 110.768 15.6834 117.176C16.7072 118.804 17.4222 120.66 18.2835 122.393C15.8622 123.304 13.6522 124.022 11.5235 124.932C8.92348 126.017 7.20104 128.538 6.79479 131.112C6.16104 135.104 5.78727 139.218 5.75477 143.315C5.70602 150.493 5.83607 157.654 6.30731 164.814C6.68106 170.487 6.27481 176.194 6.71356 181.884C6.98981 185.473 6.92482 189.132 6.72982 192.739C6.35608 200.022 6.20978 207.287 7.18477 214.536C7.41227 216.181 7.29853 217.915 8.20852 219.753C11.4747 217.249 9.54104 203.506 9.55729 199.392C9.58979 191.461 9.55729 183.547 9.45979 175.616C9.29729 162.398 7.89983 148.812 8.46857 135.629C8.64732 131.532 10.321 128.731 13.8797 127.348C17.9747 125.755 22.2159 124.512 25.9047 121.833C26.5384 121.378 27.2372 120.713 28.1471 121.01C35.1996 123.251 29.4796 161.4 29.2033 167.283C28.4071 184.178 27.9034 201.09 27.8221 218.002C27.8221 221.434 27.7246 221.574 24.4584 221.153C17.1297 220.226 9.93102 222.081 2.63482 222.099C1.07484 222.099 1.05863 222.764 1.15613 224.532C1.30238 227.421 2.95983 229.54 3.96733 231.973C6.51856 238.136 7.91601 244.456 6.37228 251.196C5.42978 255.276 4.35728 259.32 2.91105 263.242C1.51356 267.058 0.424878 270.928 0.13238 275.077C-0.355116 281.887 0.473572 288.488 3.1223 294.65C4.08104 296.856 4.97483 299.202 6.61606 301.058C8.8748 303.632 11.3122 305.89 14.3022 307.343C15.391 307.868 15.9272 308.709 16.171 309.864C17.276 315.204 18.9497 320.334 21.0622 325.306C23.6947 331.486 25.8396 337.981 29.0409 343.776C32.8921 350.745 37.4421 357.082 44.1695 361.529C51.4494 366.344 59.2657 368.62 67.4556 369.688C74.638 370.616 81.7555 369.18 88.8892 367.954C99.3866 366.151 108.227 360.829 116.189 353.668C122.478 348.013 127.661 341.08 133.024 334.392C134.145 332.992 134.681 331.083 136.355 329.77C136.355 330.891 136.436 331.696 136.355 332.467C135.413 339.802 135.656 347.208 135.104 354.561C134.779 358.85 134.356 363.175 133.528 367.377C131.773 376.253 129.27 384.919 125.955 393.253C123.274 399.993 120.885 406.821 118.545 413.702C117.066 418.079 115.961 422.526 115.214 427.077C114.499 431.419 113.735 435.831 115.198 440.173C116.205 443.167 117.18 446.178 118.366 449.067C118.935 450.468 118.724 451.413 117.911 452.446C109.088 463.616 111.444 483.749 119.374 494.604C120.154 495.655 120.771 496.845 121.486 498.018C118.448 499.891 115.23 501.205 112.435 503.393C108.129 506.789 105.09 511.341 102.295 516.174C98.3954 522.879 94.3654 529.479 88.5479 534.539C86.4517 536.36 84.6967 538.671 82.8604 540.859C81.3655 542.645 81.4629 543.433 83.1204 545.078C88.1579 550.103 98.5416 550.138 104.895 551.136C113.8 552.537 122.754 553.64 131.74 554.288C149.322 555.583 167.084 555.25 184.487 552.134C190.11 551.136 195.911 549.981 201.273 547.477C203.37 546.497 205.336 545.166 206.961 543.38C207.854 542.417 208.066 541.227 207.562 539.914C206.701 537.673 202.216 537.48 200.25 535.922C197.276 533.594 195.001 530.302 192.856 527.116C184.666 514.965 177.223 504.811 164.207 498.964C164.532 498.473 164.727 498.036 165.02 497.738C172.592 489.895 174.981 477.289 173.47 466.347C172.787 461.322 170.61 449.96 165.589 447.947C165.004 447.719 164.354 447.631 164.11 446.721C164.289 446.406 164.451 445.986 164.711 445.635C169.879 438.913 170.285 430.807 169.895 422.683C169.489 414.455 166.661 406.769 164.5 398.943C162.241 390.784 159.316 382.836 158.26 374.327C157.772 370.405 157.772 366.414 157.399 362.51C156.667 354.946 155.757 347.401 154.311 339.942C154.1 338.822 153.759 337.631 154.262 336.266C154.669 336.738 154.961 336.931 155.075 337.211C160.746 351.725 177.11 362.58 190.548 366.449C212.892 372.892 238.323 363.77 254.573 346.333C256.734 344.022 258.7 341.553 260.472 338.857C264.404 332.852 267.654 326.146 270.498 319.458C271.099 318.023 273.358 314.381 272.951 312.788C272.773 312.07 270.725 310.214 270.774 310.775L270.806 310.757ZM138.971 22.4601C139.004 19.8165 139.426 17.2078 140.125 14.6867C140.515 13.2686 143.147 8.78668 142.887 7.61368C143.797 11.8155 146.202 15.352 146.511 19.7464C146.901 25.3313 144.659 32.0367 143.018 37.2015C139.995 33.6825 138.906 27.1872 138.971 22.4601ZM134.795 101.822C134.405 92.858 134.031 83.8942 133.641 74.9303C133.446 70.4484 133.154 65.9664 133.073 61.4845C133.008 58.4207 134.048 56.3373 134.194 53.431C134.259 52.293 134.844 51.9779 135.851 51.9078C138.484 51.6977 141.019 51.1375 142.936 48.8265C143.326 48.3538 144.009 48.1437 144.561 47.8461C147.08 46.5155 149.81 45.6926 152.28 43.6968C153.596 46.0953 154.506 48.7389 154.555 50.9974C155.059 80.7953 154.522 110.821 156.57 140.601C157.057 147.604 157.171 154.66 157.48 161.68C157.529 162.766 157.366 163.519 156.294 163.606C149.761 164.096 143.261 165.234 136.241 164.919C139.247 156.481 136.583 143.735 136.209 134.911C135.738 123.881 135.266 112.852 134.795 101.822ZM20.1684 117.229C19.1122 117.281 19.0797 116.336 18.7872 115.67C17.8772 113.64 17.081 111.539 16.1873 109.508C12.5798 101.279 13.0348 88.9539 17.3735 81.1105C25.1409 86.3978 21.2571 109.28 20.1684 117.229ZM171.341 506.089C175.696 510.133 180.181 514.02 183.415 519.325C184.942 521.846 186.941 524.052 188.81 526.31C190.776 528.674 192.173 531.475 193.961 533.996C196.285 537.288 199.161 539.494 202.882 541.664C199.746 543.87 196.642 545.394 193.392 545.761C189.525 546.199 185.95 547.705 182.115 548.282C158.422 551.801 133.771 550.331 109.998 547.827C107.999 547.617 85.8504 542.61 85.8017 542.698C88.1254 539.249 91.4567 536.797 94.2679 533.804C98.9154 528.849 101.97 522.546 105.691 516.804C109.543 510.869 113.963 506.877 119.504 502.903C121.551 501.432 124.038 500.977 126.41 501.064C131.431 501.222 136.404 500.364 141.409 500.679C149.631 501.187 164.662 499.891 171.341 506.089Z" fill="black"/>
<path d="M290.745 262.364C288.822 257.699 287.36 252.859 285.913 248.019C285.272 245.904 284.812 243.51 285.026 241.344C285.601 235.56 287.195 230.038 289.71 224.866C290.137 223.975 290.959 223.171 290.351 222.088C289.759 221.022 288.691 221.232 287.754 221.284C285.65 221.406 283.547 221.581 281.443 221.773C280.407 221.861 279.865 221.476 279.783 220.305C279.684 218.715 279.421 217.16 279.372 215.57C279.01 206.711 280.029 197.904 280.457 189.063C280.966 178.788 281.607 168.514 282.002 158.222C282.133 154.587 280.868 150.533 283.399 147.161C283.629 146.846 283.629 146.27 283.612 145.833C283.497 142.775 283.793 139.717 283.037 136.677C282.034 132.693 279.816 131.662 276.496 133.951C275.197 134.842 273.965 135.821 272.453 136.397C272.157 130.281 273.537 124.812 276.184 119.675C277.087 117.928 277.268 116.075 277.334 114.101C277.465 110.187 276.529 106.482 275.46 102.83C274.77 100.472 274.622 97.9204 273.422 95.7013C272.732 94.4432 271.861 93.9364 270.579 94.0063C269.363 94.0762 268.689 94.7577 268.393 96.0507C268.245 96.6797 267.834 97.2564 267.555 97.8505C265.418 102.498 263.167 107.024 262.706 112.423C262.115 119.395 262.789 125.966 265.961 132.116C266.783 133.689 267.703 135.192 268.179 136.974C268.788 139.211 268.837 139.21 266.914 139.7C264.958 140.206 263.035 140.748 261.079 141.255C258.253 141.971 256.856 144.121 256.362 146.969C256.034 148.856 255.952 150.795 255.837 152.735C255.426 159.655 255.557 166.574 255.754 173.476C255.837 176.534 255.639 179.644 256.034 182.667C257.086 190.758 257.595 198.865 257.612 207.043C257.612 211.149 257.118 215.203 257.184 219.275C257.217 222.28 257.332 222.42 254.719 222.455C251.267 222.49 248.21 224.324 244.858 224.691C244.562 224.726 244.233 224.884 244.003 225.076C243.576 225.425 243.28 225.932 243.346 226.544C243.428 227.225 243.954 227.4 244.496 227.487C245.301 227.627 246.123 227.417 246.896 228.081C250.889 231.541 253.273 235.717 253.075 241.483C252.993 243.755 252.714 245.992 252.648 248.228C252.533 252.422 250.906 256.161 249.575 259.918C247.52 265.719 244.792 271.258 243.609 277.409C242.442 283.49 242.902 289.623 245.433 294.97C248.851 302.169 254.883 306.712 262.033 309.159C263.742 309.753 265.763 310.05 267.67 309.596C268.41 309.421 269.478 309.613 269.659 308.337C269.84 307.062 268.903 306.922 268.13 306.59C266.273 305.804 264.334 305.454 262.394 304.965C259.452 304.214 257.119 301.872 254.538 300.142C247.29 295.25 246.452 287.701 247.208 279.908C247.685 274.945 249.64 270.105 251.58 265.475C253.848 260.075 255.426 254.484 256.017 248.595C256.79 240.75 256.461 233.184 251.251 226.858C254.259 225.897 263.545 224.884 267.177 225.39C271.582 226.002 275.986 225.757 280.391 225.635C282.248 225.582 284.155 225.041 286.127 225.635C285.831 226.788 285.486 227.837 285.091 228.885C283.53 233.096 281.804 237.447 282.002 241.973C282.281 248.211 284.368 254.152 286.357 259.988C287.721 264.007 289.858 267.711 290.351 272.08C290.827 276.256 291.238 280.519 290.499 284.626C289.085 292.367 285.289 298.657 279.339 303.375C277.959 304.458 276.463 305.349 274.704 305.262C273.324 305.192 272.305 306.048 271.171 306.608C270.382 306.992 270.217 307.743 270.53 308.617C270.809 309.386 271.171 310.225 272.091 309.945C274.819 309.124 277.827 309.246 280.243 307.394C287.54 301.785 292.175 294.219 293.556 284.696C294.657 277.042 293.704 269.459 290.778 262.347L290.745 262.364ZM268.048 125.878C265.484 117.648 265.599 109.733 270.415 101.974C271.894 106.465 272.749 110.746 272.88 115.202C272.88 115.534 272.864 115.918 272.716 116.198C270.99 119.291 269.708 122.611 268.064 125.896L268.048 125.878ZM277.745 185.795C277.646 195.895 276.512 205.942 276.94 216.042C276.94 216.374 277.022 216.723 277.022 217.055C277.055 221.738 277.022 221.529 272.765 221.896C268.853 222.228 264.975 221.389 261.079 221.948C260.028 222.105 259.83 221.266 259.814 220.445C259.748 218.069 259.518 215.675 259.748 213.316C260.159 209 259.929 204.736 259.797 200.438C259.699 197.031 259.469 193.641 259.304 190.233C258.976 183.104 258.581 175.992 258.368 168.863C258.187 162.852 258.203 156.824 258.203 150.796C258.203 149.45 258.483 148.105 258.729 146.759C258.992 145.361 260.06 144.575 261.178 144.365C264.169 143.806 267.013 142.286 270.152 142.583C270.875 142.653 271.253 142.338 271.713 141.744C273.62 139.263 276.299 138.005 278.895 136.555C280.391 139.263 280.177 142.076 279.651 144.68C278.139 151.984 278.715 159.393 278.435 166.749C278.189 173.092 277.844 179.435 277.778 185.778L277.745 185.795Z" fill="black"/>
<path d="M9.41443 267C8.84872 267.174 8.57397 267.503 8.52548 267.989C8.20221 271.112 7.74959 274.201 8.16983 277.376C8.8002 282.165 9.57602 286.781 11.3863 291.327C13.9562 297.799 20.4054 301.582 27 299.361C26.2727 298.216 25.416 297.886 24.5432 297.626C22.5228 297.019 20.6802 295.977 18.9022 294.832C17.1404 293.704 15.0553 292.698 14.2149 290.581C11.8712 284.595 9.88315 278.487 10.2064 271.789C10.2872 270.158 10.3519 268.458 9.44679 267H9.41443Z" fill="black"/>
<path d="M155.112 177.844C155.291 176.982 155.846 175.896 154.782 175C153.659 175.603 153.314 176.827 152.94 178.103C151.906 181.74 151.591 185.566 151.217 189.324C150.872 192.858 150.827 196.478 151.921 199.959C152.475 201.735 152.82 203.614 153.359 205.406C154.063 207.716 154.827 210.009 155.921 212.112C156.205 212.663 156.699 213.18 157.359 212.939C158.048 212.681 158.018 211.939 157.988 211.25C157.913 209.423 157.239 207.785 156.625 206.148C154.587 200.718 153.404 195.133 154.033 189.169C154.423 185.411 154.303 181.585 155.112 177.861V177.844Z" fill="black"/>
<path d="M261.257 253C262.374 252.464 263.27 251.652 263.422 250.339C264.031 244.895 264.572 239.434 262.763 234.111C262.34 232.884 261.832 231.639 260.023 231C260.023 231.847 259.972 232.296 260.023 232.711C260.75 238.016 261.274 243.322 260.428 248.697C260.209 250.097 260.209 251.617 261.257 252.983V253Z" fill="black"/>
<path d="M141.48 454.167C139.235 455.105 136.881 455.007 134.759 454.049C132.994 453.248 131.197 452.564 129.432 451.801C128.673 451.469 127.636 450.296 127.124 451.606C126.582 453.013 127.945 453.678 128.627 454.479C128.89 454.792 129.323 454.988 129.695 455.066C131.879 455.476 133.846 456.728 135.921 457.529C137.005 457.94 138.058 458.116 139.126 457.92C142.162 457.392 145.089 456.376 148 454.694C145.754 453.463 143.633 453.267 141.465 454.167H141.48Z" fill="black"/>
<path d="M257.863 285.648C257.707 285.317 257.442 285.014 256.709 285C256.116 285.187 255.929 285.778 256.023 286.455C256.335 288.788 257.021 291.049 258.222 293.08C259.221 294.779 261.045 295.672 263.12 295.974C263.838 296.075 264.618 295.888 264.914 295.24C265.273 294.405 264.43 294.088 263.853 293.843C260.843 292.619 259.314 290.343 258.581 287.477C258.425 286.843 258.16 286.239 257.879 285.634L257.863 285.648Z" fill="black"/>
<path d="M148.101 244.591C148.487 245.408 149.12 244.795 149.644 244.517C152.129 243.217 153.658 240.692 155.139 238.13C157.733 233.638 159.245 228.681 158.967 223C158.535 224.541 157.964 226.045 157.717 227.623C156.961 232.32 154.738 235.921 152.191 239.319C151.188 240.655 150.03 241.769 148.842 242.846C148.348 243.292 147.761 243.867 148.101 244.591Z" fill="black"/>
<path d="M15.6605 241.712C16.5565 238.174 15.5005 234.848 14.5565 231.522C14.4605 231.18 13.9806 230.902 13.5166 231.033C13.0206 231.18 12.9566 231.652 13.0206 232.044C13.5806 235.451 13.2286 239.022 14.9246 243C15.3726 242.234 15.5965 241.989 15.6605 241.712Z" fill="black"/>
<path d="M125.751 429.351C122.056 429.184 118.344 429.719 114.633 429.953C113.293 430.037 111.938 430.103 110.614 430.287C109.969 430.371 108.968 430.237 109.001 431.34C109.017 432.076 109.727 432.276 110.372 432.41C111.793 432.694 113.196 433.045 114.681 432.995C118.28 432.861 121.878 432.594 125.493 432.711C129.511 432.845 133.529 432.427 137.547 432.611C142.727 432.845 147.827 432.093 152.942 431.508C156.218 431.14 159.478 430.471 162.689 429.752C165.884 429.05 169.063 428.265 172 426.56C170.419 425.791 168.902 425.975 167.385 426.175C159.171 427.262 150.989 428.649 142.727 429.017C137.079 429.268 131.431 429.602 125.751 429.351Z" fill="black"/>
</svg>
