<svg width="277" height="230" viewBox="0 0 277 458" fill="none" xmlns="http://www.w3.org/2000/svg">
<path d="M13.822 209.169L13.8385 209.103L13.822 209.169Z" fill="black"/>
<path d="M275.633 263.365C275.038 266.902 274.658 270.489 273.881 274.72C272.823 278.902 272.327 283.861 270.856 289.993L270.889 289.927C270.261 293.216 269.468 296.422 268.608 299.612C268.063 290.208 266.294 280.985 263.633 271.977C267.055 266.043 270.228 259.977 273.137 253.779C273.451 258.39 273.798 259.415 274.195 259.051C274.674 258.605 275.534 261.663 275.137 251.878C275.104 251.184 275.071 250.324 275.038 249.597C275.154 249.333 275.286 249.052 275.418 248.787C275.716 249.234 275.881 248.787 275.947 247.63C276.162 247.134 276.41 246.639 276.625 246.126C277.154 244.92 276.972 244.077 276.096 243.812C275.997 243.779 275.881 243.763 275.782 243.73C275.352 239.449 274.393 234.441 273.931 230.771C273.335 228.094 272.608 224.689 273.005 222.854C273.121 222.028 273.121 220.358 271.567 215.664C269.451 210.458 267.898 204.838 265.203 199.731C264.625 198.442 263.964 197.185 263.352 195.913C263.352 195.88 263.369 195.847 263.385 195.814L261.964 193.053C254.328 178.211 244.13 164.657 231.799 153.401C231.866 152.311 231.485 151.633 230.659 151.633C230.395 151.633 230.147 151.633 229.899 151.666C228.031 150.03 226.147 148.426 224.18 146.889C220.742 144.278 217.387 141.501 213.535 139.385C211.387 138.063 208.808 136.476 206.098 134.79C203.238 133.352 200.263 131.865 197.486 130.476L197.387 130.443L197.519 130.493C196.66 129.948 195.751 129.518 194.825 129.138C191.305 127.7 187.701 126.427 184.164 125.072C180.644 123.617 176.842 123.006 173.206 121.931C137.67 112.824 98.7783 120.229 68.2006 139.964L68.1345 140.013C56.8456 147.716 46.3004 156.74 37.7386 167.451L37.7717 167.401L37.1767 168.079C34.8462 170.426 33.5735 173.45 32.0033 175.136C30.0364 177.483 28.3008 179.599 26.8794 182.475L26.8464 182.508C24.4994 186.839 21.6234 190.888 19.8218 195.483L19.8713 195.367C19.3259 196.194 19.0119 197.07 18.6813 197.929L18.7143 197.847C16.8797 201.185 15.1111 205.053 13.855 209.053L13.7392 209.764L12.9459 212.259V212.21C12.7806 213.185 12.3675 214.127 11.9542 215.069L11.9872 215.02C10.8302 217.879 10.3675 220.937 9.5245 223.895C8.86336 226.887 7.80557 229.813 7.49153 232.887V232.92C5.60729 243.151 4.89658 253.514 5.34285 263.861C5.34285 263.944 5.34285 264.027 5.34285 264.076V264.241L5.37584 264.39V264.241V264.324L5.40893 267.663L5.75606 273.448L6.64856 279.167C7.34276 282.968 7.57418 286.869 8.632 290.637L8.59891 290.819L8.71462 291.216L10.136 296.604V296.538C10.4005 297.546 10.7476 298.637 10.9459 299.546C12.0699 303.877 13.6897 308.025 15.1111 312.29C16.6318 316.504 18.797 320.471 20.7143 324.603C21.1275 325.43 21.6234 326.256 22.0862 327.066C22.0366 328.041 22.5986 328.818 23.425 329.496C24.6316 331.562 25.8877 333.611 27.0447 335.694C31.6727 343.628 37.7386 350.52 43.6888 357.462C46.7962 360.916 50.3499 363.925 53.6721 367.181C63.2421 375.676 74.1177 382.651 85.7373 387.99C85.7538 388.023 85.7704 388.04 85.7869 388.073C86.2827 388.767 86.8447 388.899 87.3901 388.701C93.4065 391.362 99.5882 393.643 105.919 395.395C109.059 396.155 112.365 397.246 115.637 397.692C118.91 398.205 121.984 398.684 124.612 399.097C128.397 399.957 132.265 399.791 136.066 400.172C137.984 400.271 139.885 400.469 141.802 400.469L147.554 400.188C152.545 400.155 157.471 399.444 162.38 398.634C162.38 398.634 162.396 398.667 162.413 398.667L164.595 398.304C164.595 398.304 164.595 398.287 164.628 398.271C166.049 398.039 167.487 397.791 168.909 397.56C175.85 395.709 182.826 394.073 189.453 391.362H189.42C189.734 391.18 190.082 391.031 190.462 390.982L190.412 391.015C195.321 389.411 199.751 386.701 204.428 384.536C209.007 382.172 213.221 379.164 217.601 376.486C240.51 360.421 258.261 337.165 268.179 311.033C268.46 310.802 268.691 310.472 268.724 309.926C268.724 309.827 268.724 309.728 268.724 309.629C273.352 297.034 276.178 283.778 276.84 270.373C277.269 258.886 276.823 255.564 275.649 263.299L275.633 263.365ZM272.575 246.044C269.402 253.25 265.898 260.258 262.096 267.084C258.394 255.861 253.452 244.936 248.014 234.391C253.452 224.11 258.278 213.516 261.617 202.194C261.617 202.194 261.617 202.177 261.617 202.16C267.666 216.11 271.22 230.903 272.559 246.044H272.575ZM149.074 357.925C147.587 353.693 146.116 349.512 144.727 345.28C143.025 340.619 141.438 335.942 140.166 331.182C138.976 327.066 137.852 322.934 136.81 318.769C160.314 316.62 182.859 307.265 201.519 292.836C202.61 306.389 204.032 319.909 203.651 333.496C188.462 344.041 171.421 352.156 152.463 356.983C151.339 357.346 150.215 357.644 149.074 357.925ZM88.1174 132.923C91.7536 131.27 95.4561 129.782 99.2411 128.477L121.092 129.815C119.852 130.51 118.629 131.319 117.472 132.443C116.365 133.551 115.571 135.171 115.323 136.906C106.249 138.526 97.6378 142.162 89.2909 146.013C87.4728 146.906 85.6877 147.864 83.9357 148.856C83.5225 143.369 84.7621 137.799 88.1174 132.923ZM135.835 132.41C136.678 132.757 137.901 132.113 138.513 133.105V133.071C140.959 134.328 142.678 136.559 142.463 138.179C142.579 138.344 143.504 138.427 144.446 138.41C142.975 138.526 141.653 138.526 142.248 138.84C142.562 139.038 142.645 139.253 142.678 139.468C142.727 141.27 140.447 142.046 138.893 143.22C136.496 145.088 133.058 145.65 129.852 145.418C127.439 145.236 125.802 143.203 123.802 142.741C122.133 142.311 120.579 141.253 119.902 139.716C120.513 139.501 120.811 138.989 120.629 138.212C120.464 137.534 120.265 136.89 119.803 136.526C121.555 131.65 131.934 130.443 135.835 132.394V132.41ZM161.752 135.733C162.429 138.047 162.843 140.41 162.892 142.84C157.768 140.443 152.446 138.377 146.893 136.774C146.793 136.741 146.694 136.741 146.595 136.708C146.546 135.848 146.331 135.022 145.951 134.262C145.967 134.262 145.984 134.262 146.017 134.262C150.463 133.766 154.793 135.204 159.223 135.402C160.082 135.452 160.925 135.633 161.768 135.733H161.752ZM252.609 186.029C252.807 186.244 253.088 186.244 253.402 186.144C255.518 189.582 257.567 193.086 259.204 196.772C255.766 208.309 251.468 219.664 245.931 230.441C243.716 226.242 241.435 222.11 239.138 218.028C233.452 209.202 227.304 200.359 220.626 191.863C224.444 183.136 227.667 174.145 229.816 164.79C232.13 166.393 234.179 168.393 236.279 170.261C237.65 171.583 239.667 172.128 240.725 173.814V173.781C244.94 177.632 248.873 181.781 252.609 186.029ZM67.3907 278.01C67.9031 271.051 68.6633 264.027 69.622 257.002C72.0682 258.076 74.5475 259.101 77.0929 259.961C87.2249 263.812 97.9849 266.357 108.861 266.605C113.72 266.572 118.48 266.208 123.174 265.679C125.901 282.175 128.563 298.654 132.067 315.05C127.108 315.215 122.116 315.265 117.174 315.1C110.976 314.356 104.662 314.306 98.5634 312.819C96.1172 312.339 93.6875 311.86 91.2413 311.381C88.8612 310.736 86.5141 309.843 84.134 309.1C81.8035 308.257 79.3573 307.612 77.126 306.604C74.3327 305.381 68.8783 303.199 66.2007 301.811C66.2007 293.811 66.5973 285.844 67.3907 278.01ZM94.5139 147.699C101.357 144.608 108.481 142.278 115.77 140.691C116.232 142.046 116.96 143.236 117.918 144.294C117.257 144.427 116.612 144.823 116.15 145.584C109.307 153.716 101.092 160.757 95.5387 169.963C95.4892 170.046 95.4561 170.112 95.4065 170.194C90.0513 165.897 86.2001 159.798 84.6464 153.236C85.3737 152.823 86.0679 152.344 86.8117 151.93C89.4727 150.691 91.5884 148.377 94.5635 147.716H94.5304L94.5139 147.699ZM119.521 147.716C120.083 147.286 120.348 146.856 120.497 146.443C121.621 147.17 122.86 147.765 124.182 148.245C124.149 148.443 124.182 148.641 124.182 148.84C124.348 150.063 124.232 151.22 124.133 152.393C123.125 161.253 121.273 169.996 120.678 178.971C120.315 179.021 119.935 178.971 119.571 178.971C112.365 178.426 104.894 176.343 98.6791 172.508C98.6626 172.508 98.6461 172.475 98.613 172.459C104.514 163.5 111.406 155.153 119.538 147.732L119.521 147.716ZM146.132 141.121C146.265 141.121 146.347 141.203 146.496 141.187C147.521 141.137 148.479 141.319 149.455 141.551C153.983 143.121 158.297 145.055 162.512 147.137C162.512 147.17 162.512 147.203 162.512 147.236C161.867 152.492 160.496 157.633 157.52 162.079C157.256 162.509 156.942 162.922 156.562 163.352C152.033 157.468 146.81 151.848 141.091 147.088C142.397 146.278 143.537 145.286 144.413 144.079C144.81 143.484 145.637 142.278 146.132 141.104V141.121ZM188.445 164.36C188.263 164.922 188.131 165.5 187.933 166.062C186.71 170.161 184.842 173.963 183.173 177.864C181.024 181.5 179.09 185.301 176.131 188.359C175.338 189.301 174.396 190.062 173.537 190.921C169.355 182.64 164.743 174.541 159.273 166.971C163.041 161.897 165.57 155.947 166.958 149.732V149.683C166.958 149.583 166.958 149.484 166.958 149.402C174.644 153.616 181.768 158.691 188.429 164.36H188.445ZM212.312 189.615C213.502 190.888 214.593 192.243 215.75 193.549C209.453 207.218 201.156 219.929 190.776 230.474C190.66 230.176 190.561 229.879 190.462 229.598C185.768 217.863 180.726 206.243 175.503 194.756L175.454 194.706C175.454 194.706 175.404 194.623 175.388 194.574C183.04 187.02 188.726 177.434 191.734 167.137C199.238 173.93 206.098 181.516 212.312 189.615ZM126.331 261.101C126.282 260.886 126.282 260.671 126.232 260.456C125.009 250.969 124.116 241.366 123.472 231.813C122.943 225.928 123.158 219.995 123.307 214.111C128.86 213.631 134.364 212.887 139.769 211.664C143.207 210.722 146.81 210.392 150.132 209.053C158.347 206.987 165.801 202.937 172.148 197.516C172.148 197.549 172.181 197.566 172.181 197.599C178.611 209.185 181.735 222.011 186.941 234.06C178.495 241.845 168.859 248.275 157.95 252.688C155.256 253.68 152.612 254.704 149.967 255.779L141.719 258.06C136.761 259.795 131.488 260.241 126.298 261.134C126.298 261.117 126.298 261.101 126.298 261.084L126.331 261.101ZM124.43 183.202C136 182.541 147.901 178.624 156.215 170.376C156.215 170.376 156.231 170.409 156.248 170.426C156.562 170.856 156.892 171.335 157.206 171.748C162.182 178.74 166.462 186.244 170.446 193.979C163.504 199.962 155.107 204.16 146.232 206.491C141.901 207.169 137.752 208.392 133.455 209.086C130.1 209.466 126.728 209.863 123.373 210.259C123.373 209.813 123.389 209.367 123.373 208.921C123.587 200.375 123.852 191.797 124.43 183.202ZM136.348 148.972C136.348 148.972 136.381 149.038 136.414 149.054C136.628 149.154 136.843 149.269 137.108 149.369C138.166 149.732 139.075 150.426 140.017 151.121C145.537 155.418 149.669 161.038 153.702 166.823C146.314 175.07 135.405 178.194 124.695 178.905C124.992 174.31 125.323 169.715 125.802 165.12C126.216 159.765 127.224 154.542 128.001 149.236C130.794 149.666 133.67 149.583 136.331 148.972H136.348ZM96.5799 175.831C103.29 181.401 111.918 183.45 120.447 183.301C120.05 192.409 119.637 201.516 119.637 210.59C115.703 210.59 111.786 210.59 107.869 210.59C99.0262 210.078 90.3322 208.21 82.3324 204.656C86.1339 194.557 90.7454 184.822 96.4147 175.715C96.4643 175.748 96.5139 175.798 96.5635 175.831H96.5799ZM83.6382 209.02L86.5307 210.243C89.4397 211.119 92.6131 212.177 95.4891 213.119C99.5386 214.094 103.704 214.739 107.852 214.97C111.786 214.854 115.72 214.656 119.654 214.392C119.654 214.425 119.654 214.458 119.654 214.491C119.654 215.978 119.654 217.4 119.703 218.887C119.654 223.499 119.604 228.226 119.538 232.887C119.588 237.548 119.488 242.225 120.282 246.837C120.976 251.779 121.687 256.671 122.48 261.564C117.885 261.96 113.241 261.994 108.613 262.192C105.935 261.977 98.9766 261.432 96.3981 261.25C95.0428 261.101 93.7205 260.77 92.3817 260.539C88.1174 259.729 83.8366 258.952 79.8367 257.25L73.7541 255.019C72.531 254.473 71.341 253.828 70.1344 253.25C72.4318 237.862 75.9028 222.524 81.1093 207.929C81.9523 208.276 82.7622 208.722 83.6382 209.02ZM131.009 290.489C130.364 285.447 129.521 280.472 128.563 275.481C128.034 272.076 127.505 268.671 126.976 265.266C150.529 261.96 171.537 252.523 188.478 237.713C188.511 237.796 188.561 237.895 188.594 237.978C194.924 254.027 199.255 271.084 201.056 288.356C182.627 303.711 159.62 312.752 135.885 314.934C133.918 306.819 132.331 298.654 131.009 290.489ZM192.164 234.308C202.908 224.028 211.833 211.433 218.494 196.706C228.295 208.276 236.708 221.086 243.7 234.672C243.667 234.738 243.634 234.804 243.584 234.87C233.171 253.366 220.891 271.316 204.742 285.282C202.759 267.778 198.098 250.837 192.164 234.325V234.308ZM217.949 188.524C210.312 179.12 201.999 170.261 192.875 162.476C194.263 156.74 195.024 150.906 195.321 145.038C201.106 147.005 206.792 149.187 212.064 152.443C217.04 155.451 221.601 159.021 226.345 162.327C224.329 171.186 221.519 179.996 217.965 188.524H217.949ZM189.652 159.798C182.578 154.079 175.024 149.021 166.975 144.873C166.975 144.84 166.975 144.79 166.975 144.757C166.876 143.699 166.809 142.691 166.975 141.683C166.842 139.881 166.578 138.096 166.214 136.311C170.099 136.923 173.95 137.683 177.735 138.774C182.197 140.724 186.842 142.228 191.486 143.765C191.338 149.187 190.825 154.558 189.668 159.815L189.652 159.798ZM80.7126 155.6C82.4977 162.872 87.4893 169.219 93.4065 173.5C93.423 173.5 93.4396 173.533 93.4561 173.533C87.9687 183.004 83.0762 192.871 78.9441 203.003C76.9937 201.995 75.0765 200.904 73.2253 199.665L69.5228 196.805C66.9279 195.053 64.9775 192.557 62.6966 190.425C59.3082 186.425 56.4158 181.93 54.1679 177.136C62.0024 168.789 71.0435 161.583 80.6961 155.583L80.7126 155.6ZM77.5887 206.408C74.2665 214.97 71.4567 223.73 69.308 232.622C68.2667 238.92 67.4403 245.217 66.6139 251.514C51.6391 243.581 38.4659 232.06 28.8959 218.028C29.805 216.127 30.714 214.226 31.7057 212.375C36.2345 200.491 43.1599 189.715 51.5398 180.145C57.0273 191.45 66.2502 200.805 77.5722 206.392L77.5887 206.408ZM66.085 255.366C65.0272 263.96 64.1346 272.555 63.4404 281.2C62.8619 287.414 62.5314 293.662 62.4652 299.943C62.4652 299.943 62.4487 299.943 62.4322 299.943C44.3996 290.571 27.7555 277.596 14.9624 261.713C14.8963 261.63 14.8301 261.547 14.764 261.448C17.5904 247.812 21.4911 234.407 27.1769 221.73C37.0609 236.044 50.4325 247.796 66.085 255.382V255.366ZM89.9521 314.67C92.9438 315.43 100.58 317.364 103.472 318.058C107.935 318.637 112.861 319.248 117.307 319.546C122.563 319.496 127.753 319.182 132.959 319.066H133.009C135.835 331.066 140.033 342.652 143.405 354.553C143.884 355.991 144.513 357.363 145.207 358.735C142.017 359.33 138.794 359.809 135.604 360.437C131.472 360.834 126.877 361.098 122.712 361.412C119.174 361.379 115.026 361.247 111.522 361.148C109.241 360.916 106.976 360.536 104.712 360.222C100.15 359.71 95.7205 358.503 91.2413 357.561C85.1092 356.074 79.0267 354.239 73.0434 352.09C68.5807 337.198 66.4982 321.529 66.1842 305.86C73.8203 309.513 81.9192 312.075 89.919 314.653L89.9521 314.67ZM205.255 289.844C221.866 275.811 235.37 257.944 245.617 238.887C245.65 238.821 245.683 238.788 245.716 238.721C251.055 249.663 255.518 260.985 259.038 272.473C245.667 295.05 228.692 315 208.098 330.322C207.932 316.785 206.941 303.232 205.271 289.844H205.255ZM239.667 167.401C240.163 167.913 240.593 168.475 241.072 169.004C237.7 166.095 234.196 163.335 230.609 160.74C230.775 159.93 230.89 159.104 231.039 158.277C234.047 161.186 236.973 164.195 239.683 167.385L239.667 167.401ZM227.783 155.203C227.601 156.244 227.386 157.269 227.171 158.31C222.345 154.856 217.337 151.683 212.378 148.344C207.056 145.187 201.304 142.807 195.437 140.757C195.437 138.377 195.371 136.014 195.205 133.633C207.04 139.253 218.081 146.46 227.783 155.187V155.203ZM195.205 129.402C195.205 129.402 195.024 129.303 194.957 129.27L194.908 129.237L195.205 129.419V129.402ZM180.66 127.634C184.313 128.906 187.9 130.361 191.437 131.914C191.503 134.41 191.553 136.906 191.553 139.418C189.338 138.708 187.106 138.013 184.892 137.352C181.123 136.162 177.603 135.055 173.983 133.914C171.057 133.237 168.115 132.675 165.157 132.212C164.082 128.939 162.578 125.815 160.529 123.006C163.355 123.452 166.297 123.915 167.818 124.163C170.578 124.873 177.834 126.857 180.677 127.634H180.66ZM154.661 122.097C154.711 122.311 154.76 122.46 154.876 122.625C156.992 125.369 158.843 128.394 160.215 131.551C157.553 131.27 154.892 131.055 152.215 131.038C149.422 130.89 146.612 130.923 143.818 130.857C143.455 130.791 143.223 130.939 143.042 131.154C141.108 129.667 138.992 128.576 136.711 127.931L152.727 121.981C153.421 122.014 154.066 122.047 154.562 122.08C154.578 122.08 154.611 122.08 154.644 122.08L154.661 122.097ZM127.819 122.08C130.744 121.931 138.364 121.551 141.19 121.386C143.405 121.502 148.38 121.749 151.917 121.931C146.413 122.89 141.108 124.906 136.348 127.848C134.248 127.303 132.083 127.072 129.868 127.336C127.108 127.518 124.315 128.163 121.654 129.518C116.265 127.981 110.728 126.989 105.142 126.559C109.687 125.254 114.298 124.179 119.009 123.419L127.819 122.064V122.08ZM82.4812 135.633C80.3986 140.592 78.878 145.831 79.721 151.269V151.385C69.8204 157.583 60.895 165.302 52.6969 173.665C51.0275 169.368 49.8705 164.872 49.4243 160.277C49.4243 160.195 49.3912 160.129 49.3746 160.062C59.1099 150.294 70.2832 141.964 82.4812 135.633ZM28.3835 180.111L28.2017 180.541L26.9951 182.31L28.3835 180.128V180.111ZM46.2674 163.236C46.3996 163.732 46.5153 164.244 46.664 164.757C47.2921 168.806 48.4987 172.69 49.9863 176.442C48.6309 177.88 47.2756 179.318 45.9533 180.789C37.9701 190.921 31.4908 202.078 26.1521 213.78C24.1522 210.491 22.2845 207.102 20.6978 203.582C20.6151 203.384 20.4994 203.202 20.4003 203.02C21.8548 199.83 23.8382 195.533 24.7638 193.516C30.4992 182.508 37.7883 172.31 46.2674 163.236ZM14.483 207.764V207.879L13.8384 209.532L14.483 207.764ZM12.5327 227.466L14.6979 218.672C15.8714 215.069 17.2764 211.185 18.5491 207.499C19.0284 208.243 19.4912 209.02 19.9705 209.78C21.3258 212.458 22.8299 215.069 24.4167 217.615C18.9127 230.474 14.8301 243.977 11.9046 257.68C11.8715 257.63 11.8385 257.597 11.8054 257.547C10.8468 256.341 9.95426 255.085 9.12783 253.812C9.49146 244.936 10.6154 236.11 12.5492 227.466H12.5327ZM9.44188 270.638C9.17742 267.018 9.04521 263.398 9.04521 259.762C9.42537 260.208 9.80553 260.671 10.1857 261.101C10.4006 261.365 10.6154 261.63 10.8798 261.894C10.9294 261.96 10.979 262.027 11.0451 262.093C10.4831 264.936 9.90468 267.778 9.44188 270.638ZM7.47499 233.036V233.565L7.37582 233.994L7.47499 233.036ZM8.35104 289.001C8.43369 289.282 8.54929 289.745 8.56582 289.827L8.59891 290.621L8.35104 289.001ZM13.5079 295.53L11.3261 286.604L11.0947 284.985C11.5079 284.588 11.7229 284.059 11.5576 283.398C11.3592 282.489 11.3757 281.613 11.4253 280.72C12.1526 275.663 12.9955 270.621 13.9707 265.58C14.0368 265.646 14.0864 265.712 14.136 265.779C26.9456 282.175 43.8211 295.034 62.5148 304.075C62.6635 319.727 64.5478 335.363 68.6303 350.404C53.2589 344.454 38.6146 336.454 25.6232 326.388C25.3588 326.19 25.0943 326.008 24.8299 325.826C19.5738 315.628 16.4665 306.339 13.5079 295.53ZM54.8621 364.206C50.6308 360.288 46.35 356.371 42.7137 351.842C37.5072 346.057 33.1272 339.743 29.0612 333.149C41.6393 342.206 55.3745 349.627 69.8865 355.016C69.9196 355.148 69.9526 355.297 70.0022 355.429V355.396C72.8947 364.966 77.0102 374.222 82.3324 382.784C72.3823 378.139 63.2751 371.362 54.8621 364.206ZM103.274 391.461C100.018 390.618 96.8775 389.164 93.6379 387.99C91.952 387.412 90.3157 386.717 88.6959 385.957C88.6463 385.841 88.6463 385.759 88.5637 385.626C82.5473 376.585 77.9855 366.834 74.5476 356.669C83.6052 359.726 92.9272 362.04 102.448 363.396C113.621 365.296 125.174 366.272 136.529 364.718C140.017 364.09 143.488 363.33 146.926 362.503C147.289 363.445 147.603 364.387 147.818 365.396C151.702 375.776 156.198 385.874 160.892 395.858C142.132 398.849 122.497 397.692 103.274 391.445V391.461ZM164.677 395.246C160.066 383.941 154.38 373.164 150.413 361.644C150.413 361.644 150.413 361.627 150.413 361.611C169.338 356.636 187.338 348.636 203.569 337.975C203.569 338.058 203.569 338.124 203.569 338.206C203.519 338.52 203.519 338.851 203.519 339.165C203.255 343.033 204.147 346.966 203.354 350.834H203.403C203.073 361.627 200.627 372.635 199.668 383.23C188.644 388.833 176.875 392.932 164.677 395.246ZM204.065 380.932C206.825 365.743 208.081 350.322 208.114 334.868C227.287 321.413 243.816 304.257 256.228 284.092H256.195C257.666 281.877 259.071 279.596 260.46 277.299C260.774 278.423 261.154 279.53 261.451 280.654V280.621C263.65 290.389 264.757 300.373 264.542 310.273C264.542 310.637 264.691 310.901 264.889 311.133C253.534 341.214 231.386 365.792 204.065 380.932Z" fill="black"/>
<path d="M123.373 14.9922C122.926 16.5789 123.67 18.1656 123.588 19.7524C123.439 22.3804 123.224 25.025 123.373 27.653C123.72 33.3884 123.125 39.1402 123.059 44.8756C122.976 51.4044 123.439 57.9331 124.381 64.4288C124.926 68.1808 124.017 71.9823 124.166 75.7508C124.364 81.0234 124.497 86.296 125.026 91.552C125.406 95.271 124.761 99.0394 125.257 102.742C125.323 103.221 125.406 103.684 125.67 104.13C126.116 104.907 125.191 105.353 124.166 105.568C123.059 105.783 122.745 105.254 122.728 104.709C122.612 102.411 122.612 100.114 122.414 97.8328C121.918 91.8661 121.571 85.8828 121.439 79.8994C121.373 76.7756 121.637 73.6517 121.373 70.5278C121.125 66.4784 120.893 62.7264 120.646 58.7596C120.348 54.6109 119.968 50.4788 120.199 46.3136C120.513 40.6113 120.464 34.9089 120.497 29.2232C120.513 25.1737 120.166 21.1242 120.414 17.0913C120.761 11.6534 120.05 6.19901 120.679 0.777668C120.761 0.0669442 121.621 0.0338852 122.464 0.000828272C123.158 -0.0157002 123.554 0.215697 123.554 0.645438L123.356 14.9922H123.373Z" fill="black"/>
<path d="M143.934 126.709C144.413 125.386 143.323 124.262 143.19 123.039C142.942 120.99 142.529 118.857 141.422 117.039C139.025 113.238 136.48 109.172 132.331 106.825C127.819 104.131 121.042 104.445 118.348 108.378C116.927 110.329 114.679 112.378 114.15 115.469C113.505 119.634 113.77 124.08 115.274 128.031C116.332 130.775 116.58 133.931 118.563 136.262C118.827 136.56 119.092 136.824 119.571 136.956C120.381 137.171 119.538 138.097 118.497 138.973C117.389 139.915 116.811 139.733 116.53 139.336C115.373 137.683 114.464 135.865 113.522 134.064C111.042 129.37 109.803 123.915 110.133 118.477C110.315 115.634 111.224 112.891 112.216 110.081C113.373 106.478 116.712 103.238 120.612 102.065C124.678 100.693 129.125 101.007 132.728 102.924C137.637 105.602 141.488 109.453 144.017 114.064C145.785 117.287 147.455 120.742 147.554 124.494C147.719 128.89 147.851 133.502 145.752 137.518L145.223 138.526L144.347 138.328C143.389 138.113 142.761 137.436 142.496 136.675C142.232 135.568 143.537 135.551 144.579 135.617C144.579 135.617 144.628 135.617 144.777 135.584C145.009 135.436 144.744 135.617 144.727 135.799L142.133 136.13C143.405 133.237 144.017 129.998 143.951 126.709H143.934Z" fill="black"/>
<path d="M218.994 120.866C234.144 120.257 234.956 115.593 221.43 106.875C217.436 108.301 215.032 111.01 214.22 114.968C213.375 119.071 214.966 121.026 218.994 120.866Z" fill="black"/>
<path d="M4.99374 353.866C20.1438 353.257 20.9561 348.593 7.43041 339.875C3.43569 341.301 1.03217 344.01 0.219964 347.968C-0.625391 352.071 0.965874 354.026 4.99374 353.866Z" fill="black"/>
<path d="M88.8152 416.867C100.403 416.378 101.026 412.725 90.6861 405.875C87.6334 407 85.7952 409.121 85.1715 412.236C84.515 415.465 85.746 416.998 88.8152 416.867Z" fill="black"/>
<path d="M91.4473 92.0087C87.4609 91.6119 83.7196 89.9588 80.6318 87.3798C76.1389 83.6271 73.6719 78.2708 72.3975 72.6169C71.7604 69.823 71.401 66.9629 71.0905 64.1195C70.9762 63.0449 71.1722 61.028 70.3553 60.2841C69.6365 59.6228 67.9373 59.8047 67.3491 60.5321C65.9931 62.2018 66.8427 65.3759 66.7283 67.3928C66.2218 75.7744 62.5295 84.3049 55.4389 89.066C52.7269 90.868 49.6063 91.7607 46.4204 92.174C45.3748 92.3063 43.8228 92.0087 42.8915 92.5873C42.189 93.0172 41.7642 94.3232 42.14 95.0837C42.6791 96.2243 44.2312 95.8441 45.1951 95.8111C46.6165 95.7449 47.9889 95.9929 49.345 96.3897C52.3021 97.2493 55.0958 98.7702 57.5465 100.655C61.4349 103.664 64.4411 107.863 65.9768 112.574C66.9898 115.715 67.8556 119.121 67.6759 122.51C67.6106 123.915 66.5159 128.858 69.4894 127.701C71.5316 126.908 70.339 123.634 70.3553 121.981C70.388 116.277 72.6916 110.062 75.9919 105.466C80.6808 98.9025 87.3956 96.5054 95.0744 95.6953C96.0873 95.5796 96.1037 94.5216 95.8913 93.728C95.4828 92.1244 93.2772 92.1245 92.0029 92.0418C91.8232 92.0418 91.6598 92.0087 91.4801 91.9922L91.4473 92.0087ZM84.7489 94.5216C77.4949 97.0675 72.5446 104.457 70.0449 111.5C69.6201 112.707 69.2607 113.93 68.9339 115.17C69.13 114.36 68.1988 112.343 67.921 111.483C67.4962 110.194 67.006 108.937 66.4179 107.731C65.4049 105.614 64.1307 103.614 62.6112 101.812C59.5234 98.1586 55.4716 95.3977 50.9133 94.0256C52.4328 94.472 55.3899 92.4386 56.6479 91.6946C63.6241 87.6113 67.0388 80.1554 68.5419 72.435C68.7706 71.2116 68.9502 69.9883 69.0973 68.7649C68.8359 70.881 70.1919 74.1708 70.8618 76.2042C71.7114 78.7667 72.8223 81.2465 74.2437 83.5444C77.2499 88.3882 81.5794 91.3475 86.4643 94.0091C85.8762 94.1413 85.288 94.3232 84.7325 94.5216H84.7489Z" fill="black"/>
<path d="M245.363 422.009C241.303 421.612 237.492 419.959 234.347 417.38C229.771 413.627 227.258 408.271 225.96 402.617C225.311 399.823 224.945 396.963 224.629 394.119C224.513 393.045 224.712 391.028 223.88 390.284C223.148 389.623 221.418 389.805 220.819 390.532C219.437 392.202 220.303 395.376 220.186 397.393C219.67 405.774 215.91 414.305 208.688 419.066C205.926 420.868 202.747 421.761 199.502 422.174C198.437 422.306 196.857 422.009 195.908 422.587C195.193 423.017 194.76 424.323 195.143 425.084C195.692 426.224 197.273 425.844 198.254 425.811C199.702 425.745 201.1 425.993 202.481 426.39C205.493 427.249 208.338 428.77 210.834 430.655C214.795 433.664 217.857 437.863 219.421 442.574C220.453 445.715 221.334 449.121 221.151 452.51C221.085 453.915 219.97 458.858 222.998 457.701C225.078 456.908 223.864 453.634 223.88 451.981C223.914 446.278 226.26 440.062 229.621 435.466C234.397 428.903 241.236 426.505 249.057 425.695C250.089 425.58 250.106 424.522 249.889 423.728C249.473 422.124 247.227 422.124 245.929 422.042C245.746 422.042 245.579 422.009 245.396 421.992L245.363 422.009ZM238.541 424.505C231.152 427.051 226.11 434.441 223.564 441.483C223.132 442.69 222.766 443.914 222.433 445.153C222.632 444.343 221.684 442.31 221.401 441.467C220.968 440.177 220.469 438.921 219.87 437.714C218.838 435.598 217.54 433.598 215.993 431.796C212.848 428.142 208.721 425.381 204.078 424.009C205.626 424.455 208.638 422.422 209.919 421.678C217.025 417.595 220.502 410.139 222.033 402.418C222.266 401.195 222.449 399.972 222.599 398.748C222.333 400.864 223.714 404.154 224.396 406.188C225.262 408.75 226.393 411.23 227.841 413.528C230.903 418.372 235.329 421.331 240.288 423.993C239.689 424.125 239.09 424.307 238.524 424.505H238.541Z" fill="black"/>
<path d="M259.644 388.396C257.575 388.2 255.635 387.332 254.038 386.007C251.707 384.077 250.436 381.329 249.767 378.417C249.441 376.977 249.246 375.505 249.083 374.049C249.018 373.493 249.116 372.462 248.708 372.086C248.333 371.743 247.453 371.841 247.143 372.217C246.443 373.068 246.883 374.704 246.817 375.751C246.557 380.069 244.633 384.453 240.966 386.891C239.565 387.823 237.935 388.281 236.288 388.494C235.751 388.559 234.936 388.412 234.463 388.707C234.104 388.936 233.876 389.606 234.072 389.999C234.349 390.588 235.148 390.392 235.653 390.375C236.386 390.343 237.103 390.473 237.804 390.67C239.336 391.111 240.787 391.897 242.058 392.862C244.079 394.416 245.644 396.575 246.426 398.996C246.948 400.616 247.404 402.366 247.306 404.117C247.274 404.836 246.703 407.388 248.252 406.783C249.311 406.374 248.692 404.689 248.708 403.838C248.724 400.91 249.914 397.704 251.626 395.348C254.054 391.962 257.542 390.735 261.519 390.326C262.04 390.277 262.057 389.721 261.943 389.312C261.731 388.478 260.59 388.494 259.922 388.445C259.824 388.445 259.742 388.445 259.644 388.429V388.396ZM256.173 389.688C252.408 390.997 249.849 394.792 248.545 398.424C248.317 399.045 248.138 399.667 247.975 400.305C248.072 399.896 247.6 398.849 247.453 398.407C247.241 397.753 246.98 397.099 246.671 396.477C246.149 395.381 245.481 394.35 244.699 393.434C243.101 391.553 240.999 390.13 238.635 389.426C239.418 389.655 240.95 388.609 241.618 388.232C245.236 386.138 247.013 382.294 247.795 378.319C247.926 377.697 248.007 377.059 248.089 376.438C247.958 377.517 248.659 379.219 249.001 380.266C249.442 381.591 250.028 382.867 250.762 384.044C252.31 386.531 254.576 388.052 257.102 389.426C256.792 389.492 256.499 389.59 256.205 389.688H256.173Z" fill="black"/>
</svg>
