<svg width="284" height="471" viewBox="0 0 284 471" fill="none" xmlns="http://www.w3.org/2000/svg">
<path d="M125.01 464.629C123.597 463.763 123.058 462.235 122.296 460.927C116.181 450.468 110.141 439.953 105.067 428.923C99.9926 417.911 96.7586 406.512 95.9036 394.377C94.491 374.47 94.9557 354.601 96.8143 334.769C97.9667 322.468 100.327 310.332 102.13 298.123C104.788 280.095 107.613 262.104 109.806 244.021C111.349 231.168 112.724 218.296 112.985 205.332C113.245 192.202 111.312 179.294 109.379 166.367C106.925 149.886 104.583 133.404 104.416 116.684C104.23 98.1773 108.431 80.8491 116.944 64.4417C121.256 56.1367 125.363 47.7212 130.363 39.7661C132.854 35.7885 134.508 31.3874 136.366 27.0968C137.426 24.6108 136.088 22.6773 135.4 20.6149C135.084 19.6389 133.876 19.6205 132.909 20.3018C131.738 21.1489 130.344 21.7934 129.396 22.8246C124.973 27.6861 119.416 31.148 114.323 35.1624C107.613 40.4658 100.792 45.6588 94.045 50.9069C81.276 60.814 66.6856 66.6883 50.8499 69.3032C40.2185 71.0526 29.4569 71.384 19.067 67.2591C13.8256 65.1783 9.1976 62.1583 5.03423 58.4754C-3.62708 50.8149 0.276069 39.2689 6.35385 34.5547C12.2829 29.9879 18.7325 26.1577 25.1076 22.2722C38.1182 14.3723 51.6306 7.46682 66.4254 3.26828C79.2129 -0.359399 92.1305 -0.948667 105.178 1.40841C109.119 2.12658 112.817 3.67341 116.423 5.38597C121.33 7.72463 126.218 10.0633 131.069 12.494C132.519 13.2122 133.578 13.3227 134.972 12.2362C136.98 10.6894 139.47 9.91597 141.887 9.17938C147.091 7.61414 150.046 8.95841 152.481 13.8567C152.63 14.1697 152.834 14.446 153.038 14.7958C158.131 13.4332 163.335 13.47 168.484 12.8991C185.305 11.0393 202.107 9.14255 218.853 6.60133C235.135 4.13377 251.528 2.93682 268.033 3.56292C270.208 3.63658 272.401 3.76548 274.538 4.11536C281.099 5.16499 284.91 9.98962 283.813 16.3979C282.624 23.3586 283.181 30.5219 281.304 37.3722C282.27 42.7861 278.386 46.3954 276.23 50.6307C274.91 53.1904 272.55 53.9454 269.762 53.4113C265.245 52.5643 260.747 51.6988 256.231 50.8333C244.726 48.6051 233.146 46.69 221.734 44.0751C205.359 40.3185 189.226 35.6412 173.762 28.9935C170.658 27.6677 167.536 26.4523 164.711 24.5004C161.7 22.4195 158.001 21.8671 154.544 20.8358C152.964 20.3755 152.853 21.6277 152.351 22.5668C151.663 23.8743 152.462 24.2794 153.429 24.6477C158.54 26.5444 162.889 29.4723 165.975 34.0023C168.763 38.0904 170.807 42.5467 172.275 47.2793C175.993 59.304 177.35 71.6602 177.35 84.1822C177.35 96.8883 177.22 109.594 177.071 122.3C176.829 143.183 178.446 163.973 180.714 184.708C182.201 198.298 183.873 211.869 188.26 224.907C191.159 233.543 194.301 242.106 197.386 250.669C202.757 265.566 207.739 280.556 210.824 296.135C213.779 311.087 214.467 326.15 213.314 341.232C211.976 358.781 209.82 376.294 205.583 393.456C203.742 400.895 201.679 408.298 199.021 415.498C196.252 422.956 192.739 430.009 188.037 436.491C182.684 443.894 177.536 451.444 172.201 458.865C170.25 461.572 168.447 464.518 164.934 465.605C164.599 465.715 164.246 465.733 163.837 465.807C162.834 463.579 163.744 461.516 164.395 459.546C167.759 449.418 171.383 439.382 174.617 429.217C179.729 413.104 185.007 397.01 188.093 380.382C191.68 361.12 192.739 341.619 192.628 322.026C192.553 309.725 191.122 297.626 187.795 285.786C184.097 272.638 179.933 259.618 175.491 246.691C169.822 230.137 164.209 213.527 160.362 196.438C157.165 182.259 155.659 167.821 155.25 153.292C154.674 133.497 155.399 113.756 158.131 94.1077C159.302 85.6369 159.023 77.0925 157.481 68.6771C155.752 59.2488 153.726 49.8757 150.975 40.6868C149.674 36.3225 147.221 32.6765 144.043 29.4723C143.429 28.8462 142.723 28.2938 141.831 28.6989C141.013 29.0672 141.348 29.9511 141.31 30.614C140.753 39.2321 141.385 47.8685 141.385 56.4866C141.385 67.609 139.693 78.4368 137.054 89.191C133.801 102.468 130.865 115.819 129.843 129.482C128.727 144.343 128.913 159.185 130.493 174.009C131.738 185.813 133.393 197.579 133.411 209.457C133.411 226.398 132.017 243.211 129.099 259.913C127.036 271.662 126.2 283.392 127.742 295.324C129.917 312.266 128.207 329.023 124.731 345.688C122.148 358.008 120.122 370.438 119.081 382.996C118.988 384.193 118.951 385.39 119.025 386.569C119.416 393.659 118.839 400.693 118.133 407.727C117.557 413.583 118.356 419.457 118.895 425.295C119.694 433.674 121.609 441.831 124.044 449.878C125.865 455.955 127.389 462.124 129.062 468.256C129.285 469.066 129.582 469.858 128.969 471C127.055 469.066 125.884 466.82 124.917 464.463C125.363 464.555 125.791 464.647 126.367 464.776C125.642 461.516 124.657 458.46 123.672 455.384C120.698 446.251 118.207 437.025 116.944 427.468C115.382 415.646 115.587 403.787 115.754 391.928C115.828 387.011 116.813 382.113 116.163 377.214C114.732 366.405 113.115 355.614 111.628 344.823C110.308 335.211 108.858 325.598 108.598 315.875C108.264 303.721 109.974 291.715 111.423 279.709C111.535 278.77 111.609 277.683 112.687 276.744C113.096 283.079 112.334 289.008 111.684 294.956C110.55 305.342 109.992 315.728 111.07 326.169C112.371 338.691 114.174 351.139 115.903 363.606C116.181 365.65 116.089 367.878 117.148 370.014C117.445 369.572 117.631 369.425 117.65 369.259C118.858 359.26 120.661 349.353 122.798 339.52C126.014 324.622 126.98 309.651 125.177 294.496C124.025 284.81 123.876 275.124 125.363 265.456C127.036 254.554 128.969 243.69 129.861 232.696C131.106 217.486 131.478 202.312 129.731 187.102C128.523 176.513 127.445 165.906 127.129 155.226C126.553 135.946 128.133 116.923 132.556 98.1221C135.27 86.5945 138.745 75.2143 139.322 63.2447C139.749 54.3505 139.582 45.493 139.322 36.6172C138.355 41.8469 136.608 46.8005 134.805 51.754C131.943 59.525 129.155 67.3144 126.924 75.2695C125.289 81.1069 124.304 87.0917 123.263 93.6841C122.296 91.9163 122.575 90.6089 122.65 89.3567C122.984 83.4824 123.932 77.6818 125.438 71.9917C127.798 63.1711 131.051 54.6635 134.266 46.1376C136.162 41.0919 137.463 35.9358 137.835 29.7669C135.939 33.855 134.675 37.3906 132.761 40.5395C127.556 49.0655 123.189 58.015 118.579 66.854C108.821 85.5817 105.346 105.47 106.721 126.389C107.725 141.71 109.955 156.883 112.408 172.038C114.732 186.291 115.828 200.581 115.011 215.018C114.434 225.312 113.319 235.551 112.092 245.789C109.918 263.762 107.148 281.642 104.286 299.505C101.721 315.488 98.8217 331.399 97.9295 347.585C97.056 363.514 96.3311 379.424 97.6136 395.371C98.357 404.523 100.011 413.417 103.673 421.888C108.059 432.016 112.966 441.905 118.319 451.573C120.698 455.863 123.282 460.025 125.084 464.61L125.01 464.629ZM171.662 88.8595C171.588 87.681 171.569 86.484 171.458 85.3055C170.491 74.9012 169.209 64.5522 164.897 54.8661C160.808 45.6772 157.22 36.1936 149.637 29.0304C147.983 27.4651 148.076 27.3546 145.678 29.0304C149.544 32.8606 151.7 37.6116 153.28 42.694C154.99 48.2 156.049 53.8533 157.425 59.4329C160.287 71.163 161.774 83.0589 160.306 95.0837C158.429 110.46 157.295 125.854 157.239 141.323C157.146 164.323 159.358 187.028 165.789 209.199C169.376 221.537 173.669 233.562 180.119 244.813C184.636 252.731 188.687 260.926 191.977 269.452C200.992 292.71 203.631 316.814 201.809 341.508C201.568 344.786 201.308 348.138 199.988 351.25C199.579 346.222 199.895 341.214 200.137 336.186C200.843 321.16 200.025 306.226 196.884 291.494C193.353 274.939 186.476 259.637 178.521 244.776C178.093 243.984 177.851 242.99 176.811 242.659C176.495 243.285 176.773 243.837 176.978 244.39C180.993 255.18 184.171 266.248 187.665 277.204C190.695 286.706 193.018 296.337 194.115 306.281C195.323 317.275 195.379 328.268 194.951 339.317C194.375 354.435 193.222 369.48 190.36 384.341C188.316 394.929 184.951 405.204 181.996 415.59C180.007 422.625 178.502 429.843 175.826 436.62C173.038 443.654 170.882 450.891 168.186 457.926C167.926 458.625 167.629 459.325 168.056 460.669C175.082 450.523 181.792 440.855 188.464 431.169C191.066 427.394 193.037 423.288 194.84 419.089C198.873 409.679 201.865 399.956 204.133 390.012C205.267 385.004 206.939 380.069 207.069 374.876C207.181 370.309 207.46 365.724 208.426 361.304C210.638 351.158 210.768 340.827 211.289 330.552C212.199 312.56 209.337 294.956 204.337 277.683C199.616 261.441 193.26 245.752 187.739 229.768C184.673 220.892 182.331 211.869 180.9 202.625C179.171 191.484 178.167 180.27 177.052 169.055C175.194 150.53 174.84 131.987 174.915 113.388C174.971 98.1773 175.937 82.9484 174.394 67.7563C173.465 58.6411 171.513 49.8021 168.094 41.2761C165.101 33.7997 159.6 28.9199 152.351 25.6973C151.57 25.3474 150.864 24.8134 150.12 25.7526C149.191 26.8943 150.12 27.5572 150.864 28.0912C154.228 30.4483 156.365 33.7629 158.317 37.2433C162.332 44.3882 165.696 51.8093 168.372 59.525C171.681 69.0269 172.963 78.8235 171.699 88.8779L171.662 88.8595ZM95.9779 23.6533C94.8256 23.6533 93.6546 23.5796 92.5023 23.6533C87.3166 24.0584 82.1496 24.4267 76.9825 24.9607C61.8345 26.526 46.7609 28.4779 32.0032 32.566C25.1448 34.4627 18.3236 36.5988 11.2049 37.4643C7.91512 37.851 7.59914 38.2929 8.17532 41.5707C8.32401 42.381 8.54707 43.228 8.9188 43.9646C13.6026 53.0062 20.0335 60.1879 30.2561 63.2079C32.914 63.9997 35.7019 64.4417 38.2669 65.4361C39.8839 66.0622 41.0362 65.7123 42.3001 64.9389C46.8166 62.1215 51.0358 58.9541 54.939 55.3265C60.5707 50.0783 65.9979 44.4986 72.3173 40.0975C80.1051 34.6468 87.5211 28.6252 95.9594 23.6533H95.9779ZM214.281 35.9543C214.281 36.1016 214.281 36.2489 214.3 36.3962C213.816 36.4146 213.352 36.4699 212.868 36.4699C212.255 36.4699 211.66 36.4515 211.066 36.3778C200.341 35.2545 190.026 32.5476 181.011 26.618C173.056 21.3883 164.116 19.7678 155.139 17.8895C154.47 17.7422 153.615 17.7054 153.615 19.0128C157.443 19.3443 161.217 20.1545 164.599 22.0512C170.844 25.5316 177.498 28.0728 184.171 30.5404C196.624 35.1624 209.356 39.0479 222.292 42.0127C233.704 44.6276 245.283 46.4874 256.788 48.734C261.063 49.5627 265.264 50.6675 269.539 51.4778C273.107 52.1591 274.353 51.4962 276.007 48.3657C276.992 46.4874 277.81 44.5171 278.776 42.3994C275.523 41.2024 272.327 40.65 269.13 40.1344C266.026 39.6188 262.903 39.2321 259.836 38.5876C256.974 37.9615 255.896 37.1512 254.168 34.8678C262.439 37.1512 270.802 36.8566 278.739 40.0791C280.319 34.7021 281.638 29.4907 281.155 23.6901C273.869 27.281 266.658 28.6252 259.019 27.9991C250.116 27.2626 241.194 26.6733 232.291 25.8815C217.589 24.5924 203.092 21.8671 188.427 20.3386C180.732 19.5468 173.149 17.9816 165.529 16.6926C161.477 16.0112 156.942 16.1217 154.488 16.9135C164.785 17.1897 172.647 19.4547 181.94 24.795C187.721 28.1096 193.78 30.7245 200.304 32.3082C204.988 33.4315 209.616 34.7757 214.281 36.0279V35.9543ZM128.002 14.2802C128.058 14.0593 128.133 13.8383 128.188 13.6173C124.973 12.0521 121.683 10.6157 118.579 8.86633C110.252 4.20743 101.275 2.34755 91.8146 2.14499C75.8673 1.79511 60.8866 5.8095 46.6122 12.3835C33.1928 18.534 21 26.839 8.67717 34.8678C8.17533 35.1993 7.63631 35.5123 7.45045 36.3041C11.335 35.9911 15.0337 35.0151 18.751 34.0944C31.0367 31.0007 43.1365 27.1336 55.7568 25.329C68.2097 23.5428 80.6813 22.0696 93.2457 21.5172C98.58 21.2778 103.877 21.2041 108.654 18.3683C109.472 17.8895 110.457 17.7054 111.349 17.3186C111.925 17.0608 112.929 17.245 112.78 16.0112C105.996 14.4828 99.3421 12.273 92.3722 11.3155C85.2164 10.3211 78.2093 10.9656 70.7375 13.0649C72.3545 10.671 74.2503 9.89755 76.2019 9.30828C80.5326 8.00084 84.9747 7.76145 89.4912 8.11133C95.6805 8.59011 101.647 10.0817 107.595 11.739C111.2 12.7518 114.806 13.691 118.635 13.5805C121.2 13.5068 123.858 12.7702 126.293 14.3907C126.683 14.6485 127.445 14.3539 128.04 14.3171L128.002 14.2802ZM172.071 14.5933C172.071 14.8327 172.034 15.0721 172.015 15.293C172.461 15.4035 172.907 15.5508 173.372 15.6429C181.792 17.3002 190.323 18.1841 198.836 19.2522C203.259 19.8046 207.627 21.02 212.069 21.3883C224.485 22.4195 236.752 24.5924 249.186 25.329C252.197 25.5132 255.264 25.4579 258.219 25.9551C264.26 26.9495 270.022 25.8815 275.709 24.0584C280.412 22.5484 281.657 20.8727 281.787 16.0112C281.899 12.181 280.319 9.30828 276.713 7.63255C274.576 6.63816 272.327 6.39877 270.022 6.23304C252.439 4.98084 234.986 6.89596 217.571 8.8295C204.597 10.2658 191.68 12.0336 178.725 13.6726C176.495 13.9488 174.264 14.2986 172.034 14.6117L172.071 14.5933ZM44.2331 66.633C53.9539 66.9277 62.8382 63.834 71.6668 60.6114C80.0493 57.5546 87.1679 52.3801 94.2122 47.0951C104.323 39.5083 113.84 31.148 124.452 24.2241C125.735 23.3955 126.924 22.3827 127.705 20.9463C127.333 20.8727 127.11 20.7622 126.887 20.7806C126.534 20.8174 126.181 20.9279 125.846 21.0384C118.653 23.3587 112.055 26.7838 106.126 31.4427C102.52 34.2785 98.7659 36.875 94.8256 39.2321C92.2235 40.7973 89.4541 42.0863 85.8483 42.0863C87.3538 40.3922 88.9151 39.5083 90.4206 38.5323C94.7512 35.678 99.2492 33.0632 103.245 29.7669C109.788 24.3899 117.185 20.7806 125.345 18.6261C126.33 18.3683 127.333 18.2394 128.226 17.1713C124.062 17.2082 120.252 17.7422 116.535 18.8286C98.5243 24.0952 83.748 34.9046 69.3435 46.2296C62.262 51.8093 56.1285 58.5122 48.6381 63.6499C47.1698 64.6627 45.6829 65.6386 44.2145 66.633H44.2331ZM34.9399 67.2591C34.9027 66.7803 34.4938 66.7988 34.1778 66.7435C23.2304 64.9205 15.8516 58.2176 10.0526 49.3601C8.04523 46.3033 6.53972 43.0807 6.707 39.3057C6.74417 38.5323 6.53972 37.7405 5.77768 37.5563C4.95987 37.3538 4.53237 38.164 4.14206 38.7349C0.0158532 44.4987 1.11247 52.4906 6.65124 57.1679C14.4762 63.7788 23.6207 67.0566 33.7875 67.7747C34.2708 67.8116 34.754 67.83 34.9399 67.2407V67.2591ZM149.303 22.2722C151.05 19.2154 151.384 17.9447 151.087 15.9007C150.474 11.6654 146.886 9.73182 142.983 11.4812C141.775 12.0152 140.548 12.494 139.322 13.028C137.104 13.9856 136.249 15.7473 136.757 18.313C138.132 17.9632 139.508 17.3371 140.902 17.3002C143.764 17.2266 145.306 15.7718 146.18 13.2674C146.403 12.6413 146.589 11.6838 147.555 12.1073C148.41 12.4756 148.15 13.2858 147.834 13.9488C147.425 14.8143 146.998 15.6797 146.533 16.5084C146.217 17.0793 146.143 17.5396 146.552 18.1289C147.444 19.3627 148.243 20.6701 149.284 22.2722H149.303ZM138.002 21.5724C138.058 22.2906 138.114 23.0088 138.783 23.4875C139.842 24.261 140.864 25.1265 141.998 25.771C143.671 26.7285 145.567 26.2682 147.202 24.6108C148.633 23.1929 146.961 22.2354 146.515 21.2041C146.031 20.0624 145.269 18.8102 143.541 19.2154C142.128 19.5468 140.716 19.823 139.303 20.1545C138.56 20.3202 137.928 20.6517 137.983 21.5724H138.002Z" fill="black"/>
</svg>
